<?xml version="1.0" encoding="us-ascii" standalone="no"?><svg xmlns="http://www.w3.org/2000/svg" xmlns:xlink="http://www.w3.org/1999/xlink" contentStyleType="text/css" height="781px" preserveAspectRatio="none" style="width:683px;height:781px;background:#FFFFFF;" version="1.1" viewBox="0 0 683 781" width="683px" zoomAndPan="magnify"><defs/><g><text fill="#000000" font-family="sans-serif" font-size="14" font-weight="bold" lengthAdjust="spacing" textLength="315" x="177.25" y="24.9659">Patr&#243;n de delegabilidad &#8212; disciplina gen&#233;rica</text><ellipse cx="283.5" cy="56.0679" fill="#222222" rx="10" ry="10" style="stroke:#222222;stroke-width:1.0;"/><g id="Esqueleto"><rect fill="#FEFEFE" height="71.7561" rx="12.5" ry="12.5" style="stroke:#424242;stroke-width:0.5;" width="185" x="191" y="167.3079"/><line style="stroke:#424242;stroke-width:0.5;" x1="191" x2="376" y1="196.3758" y2="196.3758"/><text fill="#000000" font-family="sans-serif" font-size="14" lengthAdjust="spacing" textLength="66" x="250.5" y="187.2739">Esqueleto</text><text fill="#000000" font-family="sans-serif" font-size="12" lengthAdjust="spacing" textLength="159" x="196" y="214.2039">orquestador &#8212; no delegable</text><text fill="#000000" font-family="sans-serif" font-size="12" lengthAdjust="spacing" textLength="165" x="196" y="230.548">establece la estructura global</text></g><rect fill="#555555" height="8" style="stroke:none;stroke-width:1.0;" width="80" x="243.5" y="322.2979"/><rect fill="#555555" height="8" style="stroke:none;stroke-width:1.0;" width="80" x="243.5" y="507.7079"/><g id="ElementoI"><rect fill="#FEFEFE" height="55.412" rx="12.5" ry="12.5" style="stroke:#424242;stroke-width:0.5;" width="161" x="7" y="391.2979"/><line style="stroke:#424242;stroke-width:0.5;" x1="7" x2="168" y1="420.3658" y2="420.3658"/><text fill="#000000" font-family="sans-serif" font-size="14" lengthAdjust="spacing" textLength="141" x="17" y="411.2639">Agente &#8212; elemento i</text><text fill="#000000" font-family="sans-serif" font-size="12" lengthAdjust="spacing" textLength="115" x="12" y="438.1939">becario &#8212; delegable</text></g><g id="ElementoJ"><rect fill="#FEFEFE" height="55.412" rx="12.5" ry="12.5" style="stroke:#424242;stroke-width:0.5;" width="161" x="203" y="391.2979"/><line style="stroke:#424242;stroke-width:0.5;" x1="203" x2="364" y1="420.3658" y2="420.3658"/><text fill="#000000" font-family="sans-serif" font-size="14" lengthAdjust="spacing" textLength="141" x="213" y="411.2639">Agente &#8212; elemento j</text><text fill="#000000" font-family="sans-serif" font-size="12" lengthAdjust="spacing" textLength="115" x="208" y="438.1939">becario &#8212; delegable</text></g><g id="ElementoN"><rect fill="#FEFEFE" height="55.412" rx="12.5" ry="12.5" style="stroke:#424242;stroke-width:0.5;" width="166" x="399.5" y="391.2979"/><line style="stroke:#424242;stroke-width:0.5;" x1="399.5" x2="565.5" y1="420.3658" y2="420.3658"/><text fill="#000000" font-family="sans-serif" font-size="14" lengthAdjust="spacing" textLength="146" x="409.5" y="411.2639">Agente &#8212; elemento n</text><text fill="#000000" font-family="sans-serif" font-size="12" lengthAdjust="spacing" textLength="115" x="404.5" y="438.1939">becario &#8212; delegable</text></g><g id="Integracion"><rect fill="#FEFEFE" height="71.7561" rx="12.5" ry="12.5" style="stroke:#424242;stroke-width:0.5;" width="184" x="191.5" y="598.9479"/><line style="stroke:#424242;stroke-width:0.5;" x1="191.5" x2="375.5" y1="628.0158" y2="628.0158"/><text fill="#000000" font-family="sans-serif" font-size="14" lengthAdjust="spacing" textLength="78" x="244.5" y="618.9139">Integracion</text><text fill="#000000" font-family="sans-serif" font-size="12" lengthAdjust="spacing" textLength="159" x="196.5" y="645.8439">orquestador &#8212; no delegable</text><text fill="#000000" font-family="sans-serif" font-size="12" lengthAdjust="spacing" textLength="164" x="196.5" y="662.188">consolida la estructura global</text></g><ellipse cx="283.5" cy="764.9479" fill="none" rx="11" ry="11" style="stroke:#222222;stroke-width:1.0;"/><ellipse cx="283.5" cy="764.9479" fill="#222222" rx="6" ry="6" style="stroke:#222222;stroke-width:1.0;"/><g id="elem_GMN21"><path d="M410.5,145.0679 L410.5,199.1779 L376.43,203.1779 L410.5,207.1779 L410.5,261.304 A0,0 0 0 0 410.5,261.304 L676.5,261.304 A0,0 0 0 0 676.5,261.304 L676.5,155.0679 L666.5,145.0679 L410.5,145.0679 A0,0 0 0 0 410.5,145.0679 " fill="#FFFDE7" style="stroke:#F9A825;stroke-width:0.5;"/><path d="M666.5,145.0679 L666.5,155.0679 L676.5,155.0679 L666.5,145.0679 " fill="#FFFDE7" style="stroke:#F9A825;stroke-width:0.5;"/><text fill="#000000" font-family="sans-serif" font-size="13" lengthAdjust="spacing" textLength="137" x="416.5" y="163.9649">Sin esqueleto validado,</text><text fill="#000000" font-family="sans-serif" font-size="13" lengthAdjust="spacing" textLength="224" x="416.5" y="181.6709">ning&#250;n elemento entra en derivaci&#243;n.</text><text fill="#000000" font-family="sans-serif" font-size="13" lengthAdjust="spacing" textLength="13" x="416.5" y="199.377">&#8212;</text><text fill="#000000" font-family="sans-serif" font-size="13" lengthAdjust="spacing" textLength="225" x="416.5" y="217.083">Qui&#233;n ejecuta dentro del orquestador</text><text fill="#000000" font-family="sans-serif" font-size="13" lengthAdjust="spacing" textLength="226" x="416.5" y="234.789">(humano o LLM senior) lo determinan</text><text fill="#000000" font-family="sans-serif" font-size="13" lengthAdjust="spacing" textLength="245" x="416.5" y="252.495">las tres regiones del espacio de gobierno.</text></g><g id="elem_GMN24"><path d="M410.5,576.7079 L410.5,630.8279 L375.92,634.8279 L410.5,638.8279 L410.5,692.944 A0,0 0 0 0 410.5,692.944 L676.5,692.944 A0,0 0 0 0 676.5,692.944 L676.5,586.7079 L666.5,576.7079 L410.5,576.7079 A0,0 0 0 0 410.5,576.7079 " fill="#FFFDE7" style="stroke:#F9A825;stroke-width:0.5;"/><path d="M666.5,576.7079 L666.5,586.7079 L676.5,586.7079 L666.5,576.7079 " fill="#FFFDE7" style="stroke:#F9A825;stroke-width:0.5;"/><text fill="#000000" font-family="sans-serif" font-size="13" lengthAdjust="spacing" textLength="166" x="416.5" y="595.6049">Sin integraci&#243;n completada,</text><text fill="#000000" font-family="sans-serif" font-size="13" lengthAdjust="spacing" textLength="126" x="416.5" y="613.3109">la disciplina no cierra.</text><text fill="#000000" font-family="sans-serif" font-size="13" lengthAdjust="spacing" textLength="13" x="416.5" y="631.017">&#8212;</text><text fill="#000000" font-family="sans-serif" font-size="13" lengthAdjust="spacing" textLength="225" x="416.5" y="648.723">Qui&#233;n ejecuta dentro del orquestador</text><text fill="#000000" font-family="sans-serif" font-size="13" lengthAdjust="spacing" textLength="226" x="416.5" y="666.429">(humano o LLM senior) lo determinan</text><text fill="#000000" font-family="sans-serif" font-size="13" lengthAdjust="spacing" textLength="245" x="416.5" y="684.135">las tres regiones del espacio de gobierno.</text></g><!--link *start* to Esqueleto--><g id="link_*start*_Esqueleto"><path d="M283.5,66.1379 C283.5,85.8779 283.5,127.5779 283.5,160.8879 " fill="none" id="*start*-to-Esqueleto" style="stroke:#616161;stroke-width:1.0;"/><polygon fill="#616161" points="283.5,166.8879,287.5,157.8879,283.5,161.8879,279.5,157.8879,283.5,166.8879" style="stroke:#616161;stroke-width:1.0;"/><text fill="#000000" font-family="sans-serif" font-size="13" lengthAdjust="spacing" textLength="63" x="284.5" y="110.9649">pausa [go]</text></g><!--link Esqueleto to fork--><g id="link_Esqueleto_fork"><path d="M283.5,239.5379 C283.5,269.7079 283.5,304.0179 283.5,315.8779 " fill="none" id="Esqueleto-to-fork" style="stroke:#616161;stroke-width:1.0;"/><polygon fill="#616161" points="283.5,321.8779,287.5,312.8779,283.5,316.8779,279.5,312.8779,283.5,321.8779" style="stroke:#616161;stroke-width:1.0;"/></g><!--link fork to ElementoI--><g id="link_fork_ElementoI"><path d="M276.06,330.7479 C254.94,340.5179 198.5752,366.598 151.4252,388.418 " fill="none" id="fork-to-ElementoI" style="stroke:#616161;stroke-width:1.0;"/><polygon fill="#616161" points="145.98,390.9379,155.8277,390.7882,150.5177,388.838,152.4678,383.5279,145.98,390.9379" style="stroke:#616161;stroke-width:1.0;"/></g><!--link fork to ElementoJ--><g id="link_fork_ElementoJ"><path d="M283.5,330.7479 C283.5,340.5179 283.5,363.1179 283.5,384.9379 " fill="none" id="fork-to-ElementoJ" style="stroke:#616161;stroke-width:1.0;"/><polygon fill="#616161" points="283.5,390.9379,287.5,381.9379,283.5,385.9379,279.5,381.9379,283.5,390.9379" style="stroke:#616161;stroke-width:1.0;"/></g><!--link fork to ElementoN--><g id="link_fork_ElementoN"><path d="M291.06,330.7479 C312.5,340.5179 369.7904,366.6293 417.6604,388.4493 " fill="none" id="fork-to-ElementoN" style="stroke:#616161;stroke-width:1.0;"/><polygon fill="#616161" points="423.12,390.9379,416.5897,383.5653,418.5704,388.8641,413.2716,390.8448,423.12,390.9379" style="stroke:#616161;stroke-width:1.0;"/></g><!--link ElementoI to join--><g id="link_ElementoI_join"><path d="M146.04,447.0979 C193.19,468.9179 249.5253,494.9869 270.6253,504.7569 " fill="none" id="ElementoI-to-join" style="stroke:#616161;stroke-width:1.0;"/><polygon fill="#616161" points="276.07,507.2779,269.5837,499.8666,271.5328,505.177,266.2223,507.1261,276.07,507.2779" style="stroke:#616161;stroke-width:1.0;"/></g><!--link ElementoJ to join--><g id="link_ElementoJ_join"><path d="M283.5,446.7279 C283.5,468.6779 283.5,491.6679 283.5,501.3779 " fill="none" id="ElementoJ-to-join" style="stroke:#616161;stroke-width:1.0;"/><polygon fill="#616161" points="283.5,507.3779,287.5,498.3779,283.5,502.3779,279.5,498.3779,283.5,507.3779" style="stroke:#616161;stroke-width:1.0;"/></g><!--link ElementoN to join--><g id="link_ElementoN_join"><path d="M423.06,447.0979 C375.19,468.9179 317.919,495.018 296.499,504.788 " fill="none" id="ElementoN-to-join" style="stroke:#616161;stroke-width:1.0;"/><polygon fill="#616161" points="291.04,507.2779,300.8884,507.1823,295.5891,505.203,297.5685,499.9037,291.04,507.2779" style="stroke:#616161;stroke-width:1.0;"/></g><!--link join to Integracion--><g id="link_join_Integracion"><path d="M283.5,516.2079 C283.5,528.1879 283.5,562.5479 283.5,592.6779 " fill="none" id="join-to-Integracion" style="stroke:#616161;stroke-width:1.0;"/><polygon fill="#616161" points="283.5,598.6779,287.5,589.6779,283.5,593.6779,279.5,589.6779,283.5,598.6779" style="stroke:#616161;stroke-width:1.0;"/></g><!--link Integracion to *end*--><g id="link_Integracion_*end*"><path d="M283.5,671.1779 C283.5,699.0279 283.5,730.0079 283.5,747.6879 " fill="none" id="Integracion-to-*end*" style="stroke:#616161;stroke-width:1.0;"/><polygon fill="#616161" points="283.5,753.6879,287.5,744.6879,283.5,748.6879,279.5,744.6879,283.5,753.6879" style="stroke:#616161;stroke-width:1.0;"/></g><!--SRC=[pLDBRXin3Dth54IwQOiaG8F-4HXmMnk8aHeDiWooe3NAHBOikfGctVOGlKJMsNNhc_Ga8IV-o7RJ0bqLCnXfg3UFxt78DF5nXenJEC-OtGVYol572iJmvEMHNYPjGT1EQgOcLWjOlwTN0UioqxV5uUiNUXM7G_eTHR__gVTc6rLgwR_hlZrwPKpsEJZuWfddTn4g9tTmDOvyy1LMyElx3wXyiduMV4IeNPpVihTepCNpIpWuw40lVMtaaqpm7cRO98IBcYwDIUfjVMfA7B7i1L294iqGQPask0sWWYHc7GJK5sviRbXq11fXM2Qv8fx0yR4kdSuYDYOV9QQBn0fIrQn8OzhFMWl1JLtCTB8R6ko6XikqUrqfXwpgm2qEmUy1fe9njHCt8sUHFJqKTUNtJspZ3RR1YctmJsnnWssuOXi-phQMhoNGQXOQTaB3TSYqFq1VJqH7pMWznQMwCbJi_zOPcr1BCP5swIEzKQ9LXpIiCL7c0DZNrndegkXEW7EHwrPTSeDj_zE-d4GVw_dFkAwZF2IFqt5XVoCPP7GE1IY2vNdM-FcjeCVEDXa58-ZMHMbES4-lcocAFuBJqy-GNFJ4po0eD3kUohX5GGNvOvbT0dQrE96DChaqKsCwhpMDlED8XyR52jJVjikosWy-_JAYCszfEXFFME5-cw-STv5dXPtnVx9t3m00]--></g></svg>