<?xml version="1.0" encoding="us-ascii" standalone="no"?><svg xmlns="http://www.w3.org/2000/svg" xmlns:xlink="http://www.w3.org/1999/xlink" contentStyleType="text/css" height="1653px" preserveAspectRatio="none" style="width:1099px;height:1653px;background:#FFFFFF;" version="1.1" viewBox="0 0 1099 1653" width="1099px" zoomAndPan="magnify"><defs/><g><text fill="#000000" font-family="sans-serif" font-size="14" font-weight="bold" lengthAdjust="spacing" textLength="403" x="341.375" y="24.9659">Protocolo de iteraci&#243;n miRUP &#8212; ciclo de vida del ramillete</text><ellipse cx="256.75" cy="56.0679" fill="#222222" rx="10" ry="10" style="stroke:#222222;stroke-width:1.0;"/><path d="M72.75,127.0679 L440.75,127.0679 A12.5,12.5 0 0 1 453.25,139.5679 L453.25,156.1358 L60.25,156.1358 L60.25,139.5679 A12.5,12.5 0 0 1 72.75,127.0679 " fill="#F1F1F1" style="stroke:#F1F1F1;stroke-width:1.0;"/><rect fill="none" height="402.3079" rx="12.5" ry="12.5" style="stroke:#181818;stroke-width:0.5;" width="393" x="60.25" y="127.0679"/><line style="stroke:#181818;stroke-width:0.5;" x1="60.25" x2="453.25" y1="156.1358" y2="156.1358"/><text fill="#000000" font-family="sans-serif" font-size="14" lengthAdjust="spacing" textLength="100" x="206.75" y="147.0339">Base  (una vez)</text><ellipse cx="258.25" cy="177.1358" fill="#222222" rx="10" ry="10" style="stroke:#222222;stroke-width:1.0;"/><g id="Base.Dominio"><rect fill="#F1F1F1" height="55.412" rx="12.5" ry="12.5" style="stroke:#181818;stroke-width:0.5;" width="185" x="165.75" y="223.1358"/><line style="stroke:#181818;stroke-width:0.5;" x1="165.75" x2="350.75" y1="252.2038" y2="252.2038"/><text fill="#000000" font-family="sans-serif" font-size="14" lengthAdjust="spacing" textLength="56" x="230.25" y="243.1018">Dominio</text><text fill="#000000" font-family="sans-serif" font-size="12" lengthAdjust="spacing" textLength="165" x="170.75" y="270.0318">paso 1 &#8212; modelo del dominio</text></g><g id="Base.CasosUso"><rect fill="#F1F1F1" height="55.412" rx="12.5" ry="12.5" style="stroke:#181818;stroke-width:0.5;" width="372" x="72.25" y="314.5558"/><line style="stroke:#181818;stroke-width:0.5;" x1="72.25" x2="444.25" y1="343.6238" y2="343.6238"/><text fill="#000000" font-family="sans-serif" font-size="14" lengthAdjust="spacing" textLength="64" x="226.25" y="334.5218">CasosUso</text><text fill="#000000" font-family="sans-serif" font-size="12" lengthAdjust="spacing" textLength="352" x="77.25" y="361.4518">pasos 2.1-2.3 &#8212; actores &#183; casos de uso &#183; diagramas de contexto</text></g><g id="Base.Priorizacion"><rect fill="#F1F1F1" height="55.412" rx="12.5" ry="12.5" style="stroke:#181818;stroke-width:0.5;" width="350" x="83.25" y="405.9658"/><line style="stroke:#181818;stroke-width:0.5;" x1="83.25" x2="433.25" y1="435.0338" y2="435.0338"/><text fill="#000000" font-family="sans-serif" font-size="14" lengthAdjust="spacing" textLength="79" x="218.75" y="425.9318">Priorizacion</text><text fill="#000000" font-family="sans-serif" font-size="12" lengthAdjust="spacing" textLength="330" x="88.25" y="452.8618">paso 2.4 &#8212; ramilletes priorizados por riesgo arquitect&#243;nico</text></g><ellipse cx="258.25" cy="508.3758" fill="none" rx="11" ry="11" style="stroke:#222222;stroke-width:1.0;"/><ellipse cx="258.25" cy="508.3758" fill="#222222" rx="6" ry="6" style="stroke:#222222;stroke-width:1.0;"/><!--link *start*Base to Dominio--><g id="link_*start*Base_Dominio"><path d="M258.25,187.5158 C258.25,196.4758 258.25,204.4158 258.25,216.8458 " fill="none" id="*start*Base-to-Dominio" style="stroke:#181818;stroke-width:1.0;"/><polygon fill="#181818" points="258.25,222.8458,262.25,213.8458,258.25,217.8458,254.25,213.8458,258.25,222.8458" style="stroke:#181818;stroke-width:1.0;"/></g><!--link Dominio to CasosUso--><g id="link_Dominio_CasosUso"><path d="M258.25,278.6758 C258.25,289.8858 258.25,296.8958 258.25,308.1458 " fill="none" id="Dominio-to-CasosUso" style="stroke:#181818;stroke-width:1.0;"/><polygon fill="#181818" points="258.25,314.1458,262.25,305.1458,258.25,309.1458,254.25,305.1458,258.25,314.1458" style="stroke:#181818;stroke-width:1.0;"/></g><!--link CasosUso to Priorizacion--><g id="link_CasosUso_Priorizacion"><path d="M258.25,370.0858 C258.25,381.2958 258.25,388.3058 258.25,399.5558 " fill="none" id="CasosUso-to-Priorizacion" style="stroke:#181818;stroke-width:1.0;"/><polygon fill="#181818" points="258.25,405.5558,262.25,396.5558,258.25,400.5558,254.25,396.5558,258.25,405.5558" style="stroke:#181818;stroke-width:1.0;"/></g><!--link Priorizacion to *end*Base--><g id="link_Priorizacion_*end*Base"><path d="M258.25,461.7458 C258.25,474.0158 258.25,481.8058 258.25,490.9758 " fill="none" id="Priorizacion-to-*end*Base" style="stroke:#181818;stroke-width:1.0;"/><polygon fill="#181818" points="258.25,496.9758,262.25,487.9758,258.25,491.9758,254.25,487.9758,258.25,496.9758" style="stroke:#181818;stroke-width:1.0;"/></g><path d="M19.5,590.3779 L494,590.3779 A12.5,12.5 0 0 1 506.5,602.8779 L506.5,619.4458 L7,619.4458 L7,602.8779 A12.5,12.5 0 0 1 19.5,590.3779 " fill="#F1F1F1" style="stroke:#F1F1F1;stroke-width:1.0;"/><rect fill="none" height="956.2979" rx="12.5" ry="12.5" style="stroke:#181818;stroke-width:0.5;" width="499.5" x="7" y="590.3779"/><line style="stroke:#181818;stroke-width:0.5;" x1="7" x2="506.5" y1="619.4458" y2="619.4458"/><text fill="#000000" font-family="sans-serif" font-size="14" lengthAdjust="spacing" textLength="234" x="139.75" y="610.3439">Ramillete  (por orden de prioridad)</text><ellipse cx="239.5" cy="640.4458" fill="#222222" rx="10" ry="10" style="stroke:#222222;stroke-width:1.0;"/><g id="Ramillete.Requisitos"><rect fill="#F1F1F1" height="55.412" rx="12.5" ry="12.5" style="stroke:#181818;stroke-width:0.5;" width="280" x="99.5" y="687.4458"/><line style="stroke:#181818;stroke-width:0.5;" x1="99.5" x2="379.5" y1="716.5138" y2="716.5138"/><text fill="#000000" font-family="sans-serif" font-size="14" lengthAdjust="spacing" textLength="70" x="204.5" y="707.4118">Requisitos</text><text fill="#000000" font-family="sans-serif" font-size="12" lengthAdjust="spacing" textLength="260" x="104.5" y="734.3418">pasos 3-4 &#8212; detalle &#183; prototipo &#183; estructuraci&#243;n</text></g><g id="Ramillete.Analisis"><rect fill="#F1F1F1" height="55.412" rx="12.5" ry="12.5" style="stroke:#181818;stroke-width:0.5;" width="117" x="181" y="797.8558"/><line style="stroke:#181818;stroke-width:0.5;" x1="181" x2="298" y1="826.9238" y2="826.9238"/><text fill="#000000" font-family="sans-serif" font-size="14" lengthAdjust="spacing" textLength="52" x="213.5" y="817.8218">Analisis</text><text fill="#000000" font-family="sans-serif" font-size="12" lengthAdjust="spacing" textLength="97" x="186" y="844.7518">paso 5 &#8212; an&#225;lisis</text></g><g id="Ramillete.Diseno"><rect fill="#F1F1F1" height="55.412" rx="12.5" ry="12.5" style="stroke:#181818;stroke-width:0.5;" width="112" x="183.5" y="964.2758"/><line style="stroke:#181818;stroke-width:0.5;" x1="183.5" x2="295.5" y1="993.3438" y2="993.3438"/><text fill="#000000" font-family="sans-serif" font-size="14" lengthAdjust="spacing" textLength="46" x="216.5" y="984.2418">Diseno</text><text fill="#000000" font-family="sans-serif" font-size="12" lengthAdjust="spacing" textLength="92" x="188.5" y="1011.1718">paso 6 &#8212; dise&#241;o</text></g><g id="Ramillete.Implementacion"><rect fill="#F1F1F1" height="55.412" rx="12.5" ry="12.5" style="stroke:#181818;stroke-width:0.5;" width="165" x="157" y="1074.6858"/><line style="stroke:#181818;stroke-width:0.5;" x1="157" x2="322" y1="1103.7538" y2="1103.7538"/><text fill="#000000" font-family="sans-serif" font-size="14" lengthAdjust="spacing" textLength="110" x="184.5" y="1094.6518">Implementacion</text><text fill="#000000" font-family="sans-serif" font-size="12" lengthAdjust="spacing" textLength="145" x="162" y="1121.5818">paso 7 &#8212; implementaci&#243;n</text></g><g id="Ramillete.Pruebas"><rect fill="#F1F1F1" height="55.412" rx="12.5" ry="12.5" style="stroke:#181818;stroke-width:0.5;" width="121" x="179" y="1185.0958"/><line style="stroke:#181818;stroke-width:0.5;" x1="179" x2="300" y1="1214.1638" y2="1214.1638"/><text fill="#000000" font-family="sans-serif" font-size="14" lengthAdjust="spacing" textLength="55" x="212" y="1205.0618">Pruebas</text><text fill="#000000" font-family="sans-serif" font-size="12" lengthAdjust="spacing" textLength="101" x="184" y="1231.9918">paso 8 &#8212; pruebas</text></g><g id="Ramillete.Milestone"><rect fill="#F1F1F1" height="55.412" rx="12.5" ry="12.5" style="stroke:#181818;stroke-width:0.5;" width="126" x="176.5" y="1277.5058"/><line style="stroke:#181818;stroke-width:0.5;" x1="176.5" x2="302.5" y1="1306.5738" y2="1306.5738"/><text fill="#000000" font-family="sans-serif" font-size="14" lengthAdjust="spacing" textLength="66" x="206.5" y="1297.4718">Milestone</text><text fill="#000000" font-family="sans-serif" font-size="12" lengthAdjust="spacing" textLength="106" x="181.5" y="1324.4018">cierre del ramillete</text></g><g id="Ramillete.Correccion"><rect fill="#F1F1F1" height="71.7561" rx="12.5" ry="12.5" style="stroke:#181818;stroke-width:0.5;" width="207" x="19" y="1405.9158"/><line style="stroke:#181818;stroke-width:0.5;" x1="19" x2="226" y1="1434.9838" y2="1434.9838"/><text fill="#000000" font-family="sans-serif" font-size="14" lengthAdjust="spacing" textLength="72" x="86.5" y="1425.8818">Correccion</text><text fill="#000000" font-family="sans-serif" font-size="12" lengthAdjust="spacing" textLength="128" x="24" y="1452.8118">iteraci&#243;n de correcci&#243;n</text><text fill="#000000" font-family="sans-serif" font-size="12" lengthAdjust="spacing" textLength="187" x="24" y="1469.156">dentro de la fase &#8212; hacia delante</text></g><g id="Ramillete.Consolidado"><rect fill="#F1F1F1" height="71.7561" rx="12.5" ry="12.5" style="stroke:#181818;stroke-width:0.5;" width="169" x="244" y="1405.9158"/><line style="stroke:#181818;stroke-width:0.5;" x1="244" x2="413" y1="1434.9838" y2="1434.9838"/><text fill="#000000" font-family="sans-serif" font-size="14" lengthAdjust="spacing" textLength="83" x="287" y="1425.8818">Consolidado</text><text fill="#000000" font-family="sans-serif" font-size="12" lengthAdjust="spacing" textLength="115" x="249" y="1452.8118">promover artefactos</text><text fill="#000000" font-family="sans-serif" font-size="12" lengthAdjust="spacing" textLength="149" x="249" y="1469.156">transversales del ramillete</text></g><ellipse cx="328.5" cy="1525.6758" fill="none" rx="11" ry="11" style="stroke:#222222;stroke-width:1.0;"/><ellipse cx="328.5" cy="1525.6758" fill="#222222" rx="6" ry="6" style="stroke:#222222;stroke-width:1.0;"/><!--link *start*Ramillete to Requisitos--><g id="link_*start*Ramillete_Requisitos"><path d="M239.5,650.6558 C239.5,659.8258 239.5,668.3558 239.5,681.1958 " fill="none" id="*start*Ramillete-to-Requisitos" style="stroke:#181818;stroke-width:1.0;"/><polygon fill="#181818" points="239.5,687.1958,243.5,678.1958,239.5,682.1958,235.5,678.1958,239.5,687.1958" style="stroke:#181818;stroke-width:1.0;"/></g><!--link Requisitos to Requisitos--><g id="link_Requisitos_Requisitos"><path d="M379.97,708.6258 C390.81,710.0658 397.5,712.2458 397.5,715.1558 C397.5,718.0658 396.7578,719.4557 385.9178,720.8957 " fill="none" id="Requisitos-to-Requisitos" style="stroke:#181818;stroke-width:1.0;stroke-dasharray:7.0,7.0;"/><polygon fill="#181818" points="379.97,721.6858,389.4184,724.4658,384.9265,721.0274,388.3649,716.5355,379.97,721.6858" style="stroke:#181818;stroke-width:1.0;"/><text fill="#000000" font-family="sans-serif" font-size="13" lengthAdjust="spacing" textLength="83" x="403.5" y="720.5528">pausa [no-go]</text></g><!--link Requisitos to Analisis--><g id="link_Requisitos_Analisis"><path d="M239.5,743.2258 C239.5,759.7858 239.5,774.8958 239.5,791.4558 " fill="none" id="Requisitos-to-Analisis" style="stroke:#181818;stroke-width:1.0;"/><polygon fill="#181818" points="239.5,797.4558,243.5,788.4558,239.5,792.4558,235.5,788.4558,239.5,797.4558" style="stroke:#181818;stroke-width:1.0;"/><text fill="#000000" font-family="sans-serif" font-size="13" lengthAdjust="spacing" textLength="63" x="240.5" y="775.7528">pausa [go]</text></g><!--link Analisis to Analisis--><g id="link_Analisis_Analisis"><path d="M298.2,815.8258 C308.68,817.0858 316,820.3358 316,825.5658 C316,830.7958 314.6371,833.3296 304.1571,834.5896 " fill="none" id="Analisis-to-Analisis" style="stroke:#181818;stroke-width:1.0;stroke-dasharray:7.0,7.0;"/><polygon fill="#181818" points="298.2,835.3058,307.6131,838.2029,303.1642,834.709,306.6582,830.2601,298.2,835.3058" style="stroke:#181818;stroke-width:1.0;"/><text fill="#000000" font-family="sans-serif" font-size="13" lengthAdjust="spacing" textLength="83" x="322" y="830.9628">pausa [no-go]</text></g><!--link Analisis to Diseno--><g id="link_Analisis_Diseno"><path d="M239.5,853.7158 C239.5,884.1758 239.5,927.3058 239.5,957.7858 " fill="none" id="Analisis-to-Diseno" style="stroke:#181818;stroke-width:1.0;"/><polygon fill="#181818" points="239.5,963.7858,243.5,954.7858,239.5,958.7858,235.5,954.7858,239.5,963.7858" style="stroke:#181818;stroke-width:1.0;"/><text fill="#000000" font-family="sans-serif" font-size="13" lengthAdjust="spacing" textLength="63" x="339.5" y="886.1728">pausa [go]</text><path d="M244.5,895.9819 L244.5,940.9819 L497.5,940.9819 L497.5,905.9819 L487.5,895.9819 L244.5,895.9819 " fill="#FEFFDD" style="stroke:#181818;stroke-width:0.5;"/><path d="M487.5,895.9819 L487.5,905.9819 L497.5,905.9819 L487.5,895.9819 " fill="#FEFFDD" style="stroke:#181818;stroke-width:0.5;"/><text fill="#000000" font-family="sans-serif" font-size="13" lengthAdjust="spacing" textLength="232" x="250.5" y="914.8789">m&#225;xima retenci&#243;n humana del pipeline</text><text fill="#000000" font-family="sans-serif" font-size="13" lengthAdjust="spacing" textLength="174" x="250.5" y="932.5849">decisi&#243;n de stack tecnol&#243;gico</text></g><!--link Diseno to Diseno--><g id="link_Diseno_Diseno"><path d="M295.96,982.1958 C306.27,983.4358 313.5,986.6958 313.5,991.9758 C313.5,997.2558 312.2278,999.8151 301.9178,1001.0451 " fill="none" id="Diseno-to-Diseno" style="stroke:#181818;stroke-width:1.0;stroke-dasharray:7.0,7.0;"/><polygon fill="#181818" points="295.96,1001.7558,305.3705,1004.6615,300.9248,1001.1635,304.4228,996.7178,295.96,1001.7558" style="stroke:#181818;stroke-width:1.0;"/><text fill="#000000" font-family="sans-serif" font-size="13" lengthAdjust="spacing" textLength="83" x="319.5" y="997.3728">pausa [no-go]</text></g><!--link Diseno to Implementacion--><g id="link_Diseno_Implementacion"><path d="M239.5,1020.0558 C239.5,1036.6158 239.5,1051.7158 239.5,1068.2858 " fill="none" id="Diseno-to-Implementacion" style="stroke:#181818;stroke-width:1.0;"/><polygon fill="#181818" points="239.5,1074.2858,243.5,1065.2858,239.5,1069.2858,235.5,1065.2858,239.5,1074.2858" style="stroke:#181818;stroke-width:1.0;"/><text fill="#000000" font-family="sans-serif" font-size="13" lengthAdjust="spacing" textLength="63" x="240.5" y="1052.5828">pausa [go]</text></g><!--link Implementacion to Implementacion--><g id="link_Implementacion_Implementacion"><path d="M322.3,1093.3158 C332.96,1094.8958 340,1097.9158 340,1102.3858 C340,1106.8658 338.8952,1109.0061 328.2352,1110.5861 " fill="none" id="Implementacion-to-Implementacion" style="stroke:#181818;stroke-width:1.0;stroke-dasharray:7.0,7.0;"/><polygon fill="#181818" points="322.3,1111.4658,331.7892,1114.1031,327.246,1110.7328,330.6163,1106.1895,322.3,1111.4658" style="stroke:#181818;stroke-width:1.0;"/><text fill="#000000" font-family="sans-serif" font-size="13" lengthAdjust="spacing" textLength="83" x="346" y="1107.7828">pausa [no-go]</text></g><!--link Implementacion to Pruebas--><g id="link_Implementacion_Pruebas"><path d="M239.5,1130.4658 C239.5,1147.0258 239.5,1162.1358 239.5,1178.6958 " fill="none" id="Implementacion-to-Pruebas" style="stroke:#181818;stroke-width:1.0;"/><polygon fill="#181818" points="239.5,1184.6958,243.5,1175.6958,239.5,1179.6958,235.5,1175.6958,239.5,1184.6958" style="stroke:#181818;stroke-width:1.0;"/><text fill="#000000" font-family="sans-serif" font-size="13" lengthAdjust="spacing" textLength="63" x="240.5" y="1162.9928">pausa [go]</text></g><!--link Pruebas to Milestone--><g id="link_Pruebas_Milestone"><path d="M239.5,1240.9258 C239.5,1252.3758 239.5,1259.6658 239.5,1271.1058 " fill="none" id="Pruebas-to-Milestone" style="stroke:#181818;stroke-width:1.0;"/><polygon fill="#181818" points="239.5,1277.1058,243.5,1268.1058,239.5,1272.1058,235.5,1268.1058,239.5,1277.1058" style="stroke:#181818;stroke-width:1.0;"/></g><!--link Milestone to Correccion--><g id="link_Milestone_Correccion"><path d="M176.18,1316.1358 C156,1322.5958 135.75,1333.2858 123.5,1350.9158 C112.64,1366.5558 111.1628,1381.7513 113.3728,1399.6013 " fill="none" id="Milestone-to-Correccion" style="stroke:#181818;stroke-width:1.0;"/><polygon fill="#181818" points="114.11,1405.5558,116.9738,1396.1325,113.4956,1400.5937,109.0345,1397.1155,114.11,1405.5558" style="stroke:#181818;stroke-width:1.0;"/><text fill="#000000" font-family="sans-serif" font-size="13" lengthAdjust="spacing" textLength="51" x="149" y="1365.8128">rechazar</text><text fill="#000000" font-family="sans-serif" font-size="13" lengthAdjust="spacing" textLength="100" x="124.5" y="1383.5189">[correcci&#243;n local]</text></g><!--link Milestone to Consolidado--><g id="link_Milestone_Consolidado"><path d="M257.3,1333.1258 C271.04,1353.9158 286.8817,1377.8503 301.8517,1400.5003 " fill="none" id="Milestone-to-Consolidado" style="stroke:#181818;stroke-width:1.0;"/><polygon fill="#181818" points="305.16,1405.5058,303.5346,1395.792,302.4031,1401.3346,296.8606,1400.2031,305.16,1405.5058" style="stroke:#181818;stroke-width:1.0;"/><text fill="#000000" font-family="sans-serif" font-size="13" lengthAdjust="spacing" textLength="48" x="292.97" y="1374.8128">aprobar</text></g><!--link Correccion to Milestone--><g id="link_Correccion_Milestone"><path d="M208.1,1405.6158 C214.67,1400.4358 220.62,1394.5658 225.5,1387.9158 C237,1372.2558 240.0784,1356.3931 240.5984,1339.2231 " fill="none" id="Correccion-to-Milestone" style="stroke:#181818;stroke-width:1.0;"/><polygon fill="#181818" points="240.78,1333.2258,236.5094,1342.1006,240.6286,1338.2235,244.5057,1342.3428,240.78,1333.2258" style="stroke:#181818;stroke-width:1.0;"/></g><!--link Consolidado to *end*Ramillete--><g id="link_Consolidado_*end*Ramillete"><path d="M328.5,1477.9958 C328.5,1491.1758 328.5,1499.1558 328.5,1508.3458 " fill="none" id="Consolidado-to-*end*Ramillete" style="stroke:#181818;stroke-width:1.0;"/><polygon fill="#181818" points="328.5,1514.3458,332.5,1505.3458,328.5,1509.3458,324.5,1505.3458,328.5,1514.3458" style="stroke:#181818;stroke-width:1.0;"/></g><ellipse cx="256.75" cy="1636.6779" fill="none" rx="11" ry="11" style="stroke:#222222;stroke-width:1.0;"/><ellipse cx="256.75" cy="1636.6779" fill="#222222" rx="6" ry="6" style="stroke:#222222;stroke-width:1.0;"/><g id="elem_GMN43"><path d="M686.75,1036.9679 L686.75,1064.5279 L506.8,1068.5279 L686.75,1072.5279 L686.75,1100.086 A0,0 0 0 0 686.75,1100.086 L1092.75,1100.086 A0,0 0 0 0 1092.75,1100.086 L1092.75,1046.9679 L1082.75,1036.9679 L686.75,1036.9679 A0,0 0 0 0 686.75,1036.9679 " fill="#FEFFDD" style="stroke:#181818;stroke-width:0.5;"/><path d="M1082.75,1036.9679 L1082.75,1046.9679 L1092.75,1046.9679 L1082.75,1036.9679 " fill="#FEFFDD" style="stroke:#181818;stroke-width:0.5;"/><text fill="#000000" font-family="sans-serif" font-size="13" lengthAdjust="spacing" textLength="332" x="692.75" y="1055.8649">Modo humano: un &#250;nico milestone al cierre de Pruebas.</text><text fill="#000000" font-family="sans-serif" font-size="13" lengthAdjust="spacing" textLength="385" x="692.75" y="1073.5709">Modo CORRAL: un milestone por fase, antes de abrir la siguiente.</text><text fill="#000000" font-family="sans-serif" font-size="13" lengthAdjust="spacing" textLength="326" x="692.75" y="1091.277">Ver secci&#243;n "Gesti&#243;n humana y orquestaci&#243;n CORRAL".</text></g><!--link *start* to Base--><g id="link_*start*_Base"><path d="M256.75,66.3679 C256.75,78.1979 256.75,94.3179 256.75,120.8579 " fill="none" id="*start*-to-Base" style="stroke:#181818;stroke-width:1.0;"/><polygon fill="#181818" points="256.75,126.8579,260.75,117.8579,256.75,121.8579,252.75,117.8579,256.75,126.8579" style="stroke:#181818;stroke-width:1.0;"/></g><!--link Base to Ramillete--><g id="link_Base_Ramillete"><path d="M256.75,529.5079 C256.75,548.9379 256.75,563.1679 256.75,583.8879 " fill="none" id="Base-to-Ramillete" style="stroke:#181818;stroke-width:1.0;"/><polygon fill="#181818" points="256.75,589.8879,260.75,580.8879,256.75,584.8879,252.75,580.8879,256.75,589.8879" style="stroke:#181818;stroke-width:1.0;"/></g><!--link Ramillete to Ramillete--><g id="link_Ramillete_Ramillete"><path d="M506.65,994.1179 C528.11,1009.9479 541.5,1034.7479 541.5,1068.5279 C541.5,1102.3079 532.9374,1123.5447 511.4774,1139.3847 " fill="none" id="Ramillete-to-Ramillete" style="stroke:#181818;stroke-width:1.0;"/><polygon fill="#181818" points="506.65,1142.9479,516.2665,1140.8214,510.6728,1139.9786,511.5156,1134.3849,506.65,1142.9479" style="stroke:#181818;stroke-width:1.0;"/><text fill="#000000" font-family="sans-serif" font-size="13" lengthAdjust="spacing" textLength="115" x="547.5" y="1073.9249">[quedan ramilletes]</text></g><!--link Ramillete to *end*--><g id="link_Ramillete_*end*"><path d="M256.75,1546.9079 C256.75,1583.0979 256.75,1605.0979 256.75,1619.3279 " fill="none" id="Ramillete-to-*end*" style="stroke:#181818;stroke-width:1.0;"/><polygon fill="#181818" points="256.75,1625.3279,260.75,1616.3279,256.75,1620.3279,252.75,1616.3279,256.75,1625.3279" style="stroke:#181818;stroke-width:1.0;"/><text fill="#000000" font-family="sans-serif" font-size="13" lengthAdjust="spacing" textLength="196" x="257.75" y="1591.5749">[todos los ramilletes procesados]</text></g><!--SRC=[TLNDQXin4BxlKmmvjQKs9EaVEHJI54gXfS6GNXmV9bh55j5gDf8sf0c5FaHV88zGSYZqMBz9dwGpslMkR2U7aDNec_bclj6CeubMmx6dI8eiGQd1HErHcUMzWyfCJexXtu-Ve8ngRwzCYVpVWiVAMAkZBehfincCHc_X7GO-XOXHmuuS09uq3k5AtppT0Gm90BS5mChZFLN66M9BzmK7K6CWs4si5J4J9Rfo2od-HumD9u4Ajg- -kn01ziQxextnVeg4AfBN0Vx-1fKkkPI6iNmk3Swv64msHIxgwqXvF24wzeQykM5To0bPVbxbl3T-aRXwPGBK7QnanfeyUAF3d03zPSCogyWY6qMRyOIG5Ig-5qLIJCwJGUvEuDx2AajiygLsKaDBMcBPYZxWRejC-edc78A95CGwd7hvzaTjEQMEoFuYLItl99ewwQP3z8sAJVTOreECfYM6XIvdQqmfTXCGfev6Svfj-33sqA7bOuOK6EFMBbZibsrRtV8kcND4phqThsSUyF8GJT2EjbWTiMpS4MlS1Hy1gkNTjQaGFElfsY5PD1MwTYPgKsk6wWGjjUBmWk2USC_K1N3B7Tdb_RnjkdPbOX2cB06kxbMhFDkMlsYupIlRpBYlQuLbpCUgjhhIBWxlDA_kWMlcVfsuJNRNTdS3dUVo64-VqwPlcgX6d-5setCxP_CcPLEtnknQGdmsbXyXkIHWEnMzYVsLqTxhZMK56IHj46ACwjBchmNUe3zrKzNPfN-M5DhP0wuka9L1apOW3ySP-Y6LjSZPKarRfWz-wdXgeq-xrIASoxnBnGj6fqU5BcMTHNkazFLqE9kAhhJdNHFrkQo_SCeyw08R0xBtbZ1vW6m53VjZRGynn_IoqIMwRE7DDj2oR1WNIHQWvR-rtKXA1rcDtFSqQDxC5n7eF5jsh3dxjZD61z0uMFwHbSa_JQjMe1qwlNeUuvNZqPV9vF1JSXmyP5kAqCz1n4rx7y-yyTA0OEQDuOve2V6LzGkhLx3pWTtpYV_6AvSL2Ds8T5mxuwAVw_y0]--></g></svg>