<?xml version="1.0" encoding="us-ascii" standalone="no"?><svg xmlns="http://www.w3.org/2000/svg" xmlns:xlink="http://www.w3.org/1999/xlink" contentStyleType="text/css" height="1636px" preserveAspectRatio="none" style="width:1326px;height:1636px;background:#FFFFFF;" version="1.1" viewBox="0 0 1326 1636" width="1326px" zoomAndPan="magnify"><defs/><g><text fill="#000000" font-family="sans-serif" font-size="14" font-weight="bold" lengthAdjust="spacing" textLength="403" x="454.625" y="24.9659">Protocolo de iteraci&#243;n miRUP &#8212; ciclo de vida del ramillete</text><ellipse cx="724" cy="56.0679" fill="#222222" rx="10" ry="10" style="stroke:#222222;stroke-width:1.0;"/><path d="M540,127.0679 L908,127.0679 A12.5,12.5 0 0 1 920.5,139.5679 L920.5,156.1358 L527.5,156.1358 L527.5,139.5679 A12.5,12.5 0 0 1 540,127.0679 " fill="#F1F1F1" style="stroke:#F1F1F1;stroke-width:1.0;"/><rect fill="none" height="402.3079" rx="12.5" ry="12.5" style="stroke:#181818;stroke-width:0.5;" width="393" x="527.5" y="127.0679"/><line style="stroke:#181818;stroke-width:0.5;" x1="527.5" x2="920.5" y1="156.1358" y2="156.1358"/><text fill="#000000" font-family="sans-serif" font-size="14" lengthAdjust="spacing" textLength="100" x="674" y="147.0339">Base  (una vez)</text><ellipse cx="725.5" cy="177.1358" fill="#222222" rx="10" ry="10" style="stroke:#222222;stroke-width:1.0;"/><g id="Base.Dominio"><rect fill="#F1F1F1" height="55.412" rx="12.5" ry="12.5" style="stroke:#181818;stroke-width:0.5;" width="185" x="633" y="223.1358"/><line style="stroke:#181818;stroke-width:0.5;" x1="633" x2="818" y1="252.2038" y2="252.2038"/><text fill="#000000" font-family="sans-serif" font-size="14" lengthAdjust="spacing" textLength="56" x="697.5" y="243.1018">Dominio</text><text fill="#000000" font-family="sans-serif" font-size="12" lengthAdjust="spacing" textLength="165" x="638" y="270.0318">paso 1 &#8212; modelo del dominio</text></g><g id="Base.CasosUso"><rect fill="#F1F1F1" height="55.412" rx="12.5" ry="12.5" style="stroke:#181818;stroke-width:0.5;" width="372" x="539.5" y="314.5558"/><line style="stroke:#181818;stroke-width:0.5;" x1="539.5" x2="911.5" y1="343.6238" y2="343.6238"/><text fill="#000000" font-family="sans-serif" font-size="14" lengthAdjust="spacing" textLength="64" x="693.5" y="334.5218">CasosUso</text><text fill="#000000" font-family="sans-serif" font-size="12" lengthAdjust="spacing" textLength="352" x="544.5" y="361.4518">pasos 2.1-2.3 &#8212; actores &#183; casos de uso &#183; diagramas de contexto</text></g><g id="Base.Priorizacion"><rect fill="#F1F1F1" height="55.412" rx="12.5" ry="12.5" style="stroke:#181818;stroke-width:0.5;" width="350" x="550.5" y="405.9658"/><line style="stroke:#181818;stroke-width:0.5;" x1="550.5" x2="900.5" y1="435.0338" y2="435.0338"/><text fill="#000000" font-family="sans-serif" font-size="14" lengthAdjust="spacing" textLength="79" x="686" y="425.9318">Priorizacion</text><text fill="#000000" font-family="sans-serif" font-size="12" lengthAdjust="spacing" textLength="330" x="555.5" y="452.8618">paso 2.4 &#8212; ramilletes priorizados por riesgo arquitect&#243;nico</text></g><ellipse cx="725.5" cy="508.3758" fill="none" rx="11" ry="11" style="stroke:#222222;stroke-width:1.0;"/><ellipse cx="725.5" cy="508.3758" fill="#222222" rx="6" ry="6" style="stroke:#222222;stroke-width:1.0;"/><!--link *start*Base to Dominio--><g id="link_*start*Base_Dominio"><path d="M725.5,187.5158 C725.5,196.4758 725.5,204.4158 725.5,216.8458 " fill="none" id="*start*Base-to-Dominio" style="stroke:#181818;stroke-width:1.0;"/><polygon fill="#181818" points="725.5,222.8458,729.5,213.8458,725.5,217.8458,721.5,213.8458,725.5,222.8458" style="stroke:#181818;stroke-width:1.0;"/></g><!--link Dominio to CasosUso--><g id="link_Dominio_CasosUso"><path d="M725.5,278.6758 C725.5,289.8858 725.5,296.8958 725.5,308.1458 " fill="none" id="Dominio-to-CasosUso" style="stroke:#181818;stroke-width:1.0;"/><polygon fill="#181818" points="725.5,314.1458,729.5,305.1458,725.5,309.1458,721.5,305.1458,725.5,314.1458" style="stroke:#181818;stroke-width:1.0;"/></g><!--link CasosUso to Priorizacion--><g id="link_CasosUso_Priorizacion"><path d="M725.5,370.0858 C725.5,381.2958 725.5,388.3058 725.5,399.5558 " fill="none" id="CasosUso-to-Priorizacion" style="stroke:#181818;stroke-width:1.0;"/><polygon fill="#181818" points="725.5,405.5558,729.5,396.5558,725.5,400.5558,721.5,396.5558,725.5,405.5558" style="stroke:#181818;stroke-width:1.0;"/></g><!--link Priorizacion to *end*Base--><g id="link_Priorizacion_*end*Base"><path d="M725.5,461.7458 C725.5,474.0158 725.5,481.8058 725.5,490.9758 " fill="none" id="Priorizacion-to-*end*Base" style="stroke:#181818;stroke-width:1.0;"/><polygon fill="#181818" points="725.5,496.9758,729.5,487.9758,725.5,491.9758,721.5,487.9758,725.5,496.9758" style="stroke:#181818;stroke-width:1.0;"/></g><path d="M303.25,590.3779 L1144.75,590.3779 A12.5,12.5 0 0 1 1157.25,602.8779 L1157.25,619.4458 L290.75,619.4458 L290.75,602.8779 A12.5,12.5 0 0 1 303.25,590.3779 " fill="#F1F1F1" style="stroke:#F1F1F1;stroke-width:1.0;"/><rect fill="none" height="939.2979" rx="12.5" ry="12.5" style="stroke:#181818;stroke-width:0.5;" width="866.5" x="290.75" y="590.3779"/><line style="stroke:#181818;stroke-width:0.5;" x1="290.75" x2="1157.25" y1="619.4458" y2="619.4458"/><text fill="#000000" font-family="sans-serif" font-size="14" lengthAdjust="spacing" textLength="234" x="607" y="610.3439">Ramillete  (por orden de prioridad)</text><ellipse cx="895.25" cy="640.4458" fill="#222222" rx="10" ry="10" style="stroke:#222222;stroke-width:1.0;"/><g id="Ramillete.Requisitos"><rect fill="#F1F1F1" height="55.412" rx="12.5" ry="12.5" style="stroke:#181818;stroke-width:0.5;" width="280" x="755.25" y="687.4458"/><line style="stroke:#181818;stroke-width:0.5;" x1="755.25" x2="1035.25" y1="716.5138" y2="716.5138"/><text fill="#000000" font-family="sans-serif" font-size="14" lengthAdjust="spacing" textLength="70" x="860.25" y="707.4118">Requisitos</text><text fill="#000000" font-family="sans-serif" font-size="12" lengthAdjust="spacing" textLength="260" x="760.25" y="734.3418">pasos 3-4 &#8212; detalle &#183; prototipo &#183; estructuraci&#243;n</text></g><g id="Ramillete.Analisis"><rect fill="#F1F1F1" height="55.412" rx="12.5" ry="12.5" style="stroke:#181818;stroke-width:0.5;" width="117" x="736.75" y="797.8558"/><line style="stroke:#181818;stroke-width:0.5;" x1="736.75" x2="853.75" y1="826.9238" y2="826.9238"/><text fill="#000000" font-family="sans-serif" font-size="14" lengthAdjust="spacing" textLength="52" x="769.25" y="817.8218">Analisis</text><text fill="#000000" font-family="sans-serif" font-size="12" lengthAdjust="spacing" textLength="97" x="741.75" y="844.7518">paso 5 &#8212; an&#225;lisis</text></g><g id="Ramillete.Diseno"><rect fill="#F1F1F1" height="55.412" rx="12.5" ry="12.5" style="stroke:#181818;stroke-width:0.5;" width="112" x="598.25" y="944.2758"/><line style="stroke:#181818;stroke-width:0.5;" x1="598.25" x2="710.25" y1="973.3438" y2="973.3438"/><text fill="#000000" font-family="sans-serif" font-size="14" lengthAdjust="spacing" textLength="46" x="631.25" y="964.2418">Diseno</text><text fill="#000000" font-family="sans-serif" font-size="12" lengthAdjust="spacing" textLength="92" x="603.25" y="991.1718">paso 6 &#8212; dise&#241;o</text></g><g id="Ramillete.Implementacion"><rect fill="#F1F1F1" height="55.412" rx="12.5" ry="12.5" style="stroke:#181818;stroke-width:0.5;" width="165" x="571.75" y="1054.6858"/><line style="stroke:#181818;stroke-width:0.5;" x1="571.75" x2="736.75" y1="1083.7538" y2="1083.7538"/><text fill="#000000" font-family="sans-serif" font-size="14" lengthAdjust="spacing" textLength="110" x="599.25" y="1074.6518">Implementacion</text><text fill="#000000" font-family="sans-serif" font-size="12" lengthAdjust="spacing" textLength="145" x="576.75" y="1101.5818">paso 7 &#8212; implementaci&#243;n</text></g><g id="Ramillete.Pruebas"><rect fill="#F1F1F1" height="55.412" rx="12.5" ry="12.5" style="stroke:#181818;stroke-width:0.5;" width="121" x="593.75" y="1165.0958"/><line style="stroke:#181818;stroke-width:0.5;" x1="593.75" x2="714.75" y1="1194.1638" y2="1194.1638"/><text fill="#000000" font-family="sans-serif" font-size="14" lengthAdjust="spacing" textLength="55" x="626.75" y="1185.0618">Pruebas</text><text fill="#000000" font-family="sans-serif" font-size="12" lengthAdjust="spacing" textLength="101" x="598.75" y="1211.9918">paso 8 &#8212; pruebas</text></g><g id="Ramillete.Milestone"><rect fill="#F1F1F1" height="55.412" rx="12.5" ry="12.5" style="stroke:#181818;stroke-width:0.5;" width="126" x="549.25" y="1257.5058"/><line style="stroke:#181818;stroke-width:0.5;" x1="549.25" x2="675.25" y1="1286.5738" y2="1286.5738"/><text fill="#000000" font-family="sans-serif" font-size="14" lengthAdjust="spacing" textLength="66" x="579.25" y="1277.4718">Milestone</text><text fill="#000000" font-family="sans-serif" font-size="12" lengthAdjust="spacing" textLength="106" x="554.25" y="1304.4018">cierre del ramillete</text></g><g id="Ramillete.Correccion"><rect fill="#F1F1F1" height="71.7561" rx="12.5" ry="12.5" style="stroke:#181818;stroke-width:0.5;" width="207" x="302.75" y="1385.9158"/><line style="stroke:#181818;stroke-width:0.5;" x1="302.75" x2="509.75" y1="1414.9838" y2="1414.9838"/><text fill="#000000" font-family="sans-serif" font-size="14" lengthAdjust="spacing" textLength="72" x="370.25" y="1405.8818">Correccion</text><text fill="#000000" font-family="sans-serif" font-size="12" lengthAdjust="spacing" textLength="128" x="307.75" y="1432.8118">iteraci&#243;n de correcci&#243;n</text><text fill="#000000" font-family="sans-serif" font-size="12" lengthAdjust="spacing" textLength="187" x="307.75" y="1449.156">dentro de la fase &#8212; hacia delante</text></g><g id="Ramillete.Consolidado"><rect fill="#F1F1F1" height="71.7561" rx="12.5" ry="12.5" style="stroke:#181818;stroke-width:0.5;" width="169" x="527.75" y="1385.9158"/><line style="stroke:#181818;stroke-width:0.5;" x1="527.75" x2="696.75" y1="1414.9838" y2="1414.9838"/><text fill="#000000" font-family="sans-serif" font-size="14" lengthAdjust="spacing" textLength="83" x="570.75" y="1405.8818">Consolidado</text><text fill="#000000" font-family="sans-serif" font-size="12" lengthAdjust="spacing" textLength="115" x="532.75" y="1432.8118">promover artefactos</text><text fill="#000000" font-family="sans-serif" font-size="12" lengthAdjust="spacing" textLength="149" x="532.75" y="1449.156">transversales del ramillete</text></g><ellipse cx="612.25" cy="1506.6758" fill="none" rx="11" ry="11" style="stroke:#222222;stroke-width:1.0;"/><ellipse cx="612.25" cy="1506.6758" fill="#222222" rx="6" ry="6" style="stroke:#222222;stroke-width:1.0;"/><g id="elem_Reset"><polygon fill="#F1F1F1" points="919.25,1494.6758,931.25,1506.6758,919.25,1518.6758,907.25,1506.6758,919.25,1494.6758" style="stroke:#181818;stroke-width:0.5;"/></g><!--link *start*Ramillete to Requisitos--><g id="link_*start*Ramillete_Requisitos"><path d="M895.25,650.6558 C895.25,659.8258 895.25,668.3558 895.25,681.1958 " fill="none" id="*start*Ramillete-to-Requisitos" style="stroke:#181818;stroke-width:1.0;"/><polygon fill="#181818" points="895.25,687.1958,899.25,678.1958,895.25,682.1958,891.25,678.1958,895.25,687.1958" style="stroke:#181818;stroke-width:1.0;"/></g><!--link Requisitos to Requisitos--><g id="link_Requisitos_Requisitos"><path d="M1035.72,708.6258 C1046.56,710.0658 1053.25,712.2458 1053.25,715.1558 C1053.25,718.0658 1052.5078,719.4557 1041.6678,720.8957 " fill="none" id="Requisitos-to-Requisitos" style="stroke:#181818;stroke-width:1.0;stroke-dasharray:7.0,7.0;"/><polygon fill="#181818" points="1035.72,721.6858,1045.1684,724.4658,1040.6765,721.0274,1044.1149,716.5355,1035.72,721.6858" style="stroke:#181818;stroke-width:1.0;"/><text fill="#000000" font-family="sans-serif" font-size="13" lengthAdjust="spacing" textLength="83" x="1059.25" y="720.5528">pausa [no-go]</text></g><!--link Requisitos to Analisis--><g id="link_Requisitos_Analisis"><path d="M870.27,743.2258 C855,759.7858 839.5988,776.4862 824.3188,793.0462 " fill="none" id="Requisitos-to-Analisis" style="stroke:#181818;stroke-width:1.0;"/><polygon fill="#181818" points="820.25,797.4558,829.293,793.5539,823.6407,793.7811,823.4134,788.1288,820.25,797.4558" style="stroke:#181818;stroke-width:1.0;"/><text fill="#000000" font-family="sans-serif" font-size="13" lengthAdjust="spacing" textLength="63" x="852.24" y="775.7528">pausa [go]</text></g><!--link Analisis to Analisis--><g id="link_Analisis_Analisis"><path d="M853.95,815.8258 C864.43,817.0858 871.75,820.3358 871.75,825.5658 C871.75,830.7958 870.3871,833.3296 859.9071,834.5896 " fill="none" id="Analisis-to-Analisis" style="stroke:#181818;stroke-width:1.0;stroke-dasharray:7.0,7.0;"/><polygon fill="#181818" points="853.95,835.3058,863.3631,838.2029,858.9142,834.709,862.4082,830.2601,853.95,835.3058" style="stroke:#181818;stroke-width:1.0;"/><text fill="#000000" font-family="sans-serif" font-size="13" lengthAdjust="spacing" textLength="83" x="877.75" y="830.9628">pausa [no-go]</text></g><!--link Analisis to Diseno--><g id="link_Analisis_Diseno"><path d="M736.34,833.3558 C689.76,840.0858 630.18,852.1858 615.25,871.2758 C600.19,890.5258 606.67,903.3858 615.25,926.2758 C617.64,932.6358 617.7029,933.9546 621.9529,939.4346 " fill="none" id="Analisis-to-Diseno" style="stroke:#181818;stroke-width:1.0;"/><polygon fill="#181818" points="625.63,944.1758,623.2752,934.6126,622.5658,940.2248,616.9536,939.5154,625.63,944.1758" style="stroke:#181818;stroke-width:1.0;"/><path d="M620.25,876.2758 L620.25,921.2758 L873.25,921.2758 L873.25,886.2758 L863.25,876.2758 L620.25,876.2758 " fill="#FEFFDD" style="stroke:#181818;stroke-width:0.5;"/><path d="M863.25,876.2758 L863.25,886.2758 L873.25,886.2758 L863.25,876.2758 " fill="#FEFFDD" style="stroke:#181818;stroke-width:0.5;"/><text fill="#000000" font-family="sans-serif" font-size="13" lengthAdjust="spacing" textLength="232" x="626.25" y="895.1728">m&#225;xima retenci&#243;n humana del pipeline</text><text fill="#000000" font-family="sans-serif" font-size="13" lengthAdjust="spacing" textLength="174" x="626.25" y="912.8789">decisi&#243;n de stack tecnol&#243;gico</text><text fill="#000000" font-family="sans-serif" font-size="13" lengthAdjust="spacing" textLength="63" x="879.25" y="904.0259">pausa [go]</text></g><!--link Diseno to Diseno--><g id="link_Diseno_Diseno"><path d="M710.71,962.1958 C721.02,963.4358 728.25,966.6958 728.25,971.9758 C728.25,977.2658 726.9778,979.8151 716.6678,981.0451 " fill="none" id="Diseno-to-Diseno" style="stroke:#181818;stroke-width:1.0;stroke-dasharray:7.0,7.0;"/><polygon fill="#181818" points="710.71,981.7558,720.1205,984.6615,715.6748,981.1635,719.1728,976.7178,710.71,981.7558" style="stroke:#181818;stroke-width:1.0;"/><text fill="#000000" font-family="sans-serif" font-size="13" lengthAdjust="spacing" textLength="83" x="734.25" y="977.3728">pausa [no-go]</text></g><!--link Diseno to Implementacion--><g id="link_Diseno_Implementacion"><path d="M654.25,1000.0558 C654.25,1016.6158 654.25,1031.7158 654.25,1048.2858 " fill="none" id="Diseno-to-Implementacion" style="stroke:#181818;stroke-width:1.0;"/><polygon fill="#181818" points="654.25,1054.2858,658.25,1045.2858,654.25,1049.2858,650.25,1045.2858,654.25,1054.2858" style="stroke:#181818;stroke-width:1.0;"/><text fill="#000000" font-family="sans-serif" font-size="13" lengthAdjust="spacing" textLength="63" x="655.25" y="1032.5828">pausa [go]</text></g><!--link Implementacion to Implementacion--><g id="link_Implementacion_Implementacion"><path d="M737.05,1073.3158 C747.71,1074.8958 754.75,1077.9158 754.75,1082.3858 C754.75,1086.8658 753.6452,1089.0061 742.9852,1090.5861 " fill="none" id="Implementacion-to-Implementacion" style="stroke:#181818;stroke-width:1.0;stroke-dasharray:7.0,7.0;"/><polygon fill="#181818" points="737.05,1091.4658,746.5392,1094.1031,741.996,1090.7328,745.3663,1086.1895,737.05,1091.4658" style="stroke:#181818;stroke-width:1.0;"/><text fill="#000000" font-family="sans-serif" font-size="13" lengthAdjust="spacing" textLength="83" x="760.75" y="1087.7828">pausa [no-go]</text></g><!--link Implementacion to Pruebas--><g id="link_Implementacion_Pruebas"><path d="M654.25,1110.4658 C654.25,1127.0258 654.25,1142.1358 654.25,1158.6958 " fill="none" id="Implementacion-to-Pruebas" style="stroke:#181818;stroke-width:1.0;"/><polygon fill="#181818" points="654.25,1164.6958,658.25,1155.6958,654.25,1159.6958,650.25,1155.6958,654.25,1164.6958" style="stroke:#181818;stroke-width:1.0;"/><text fill="#000000" font-family="sans-serif" font-size="13" lengthAdjust="spacing" textLength="63" x="655.25" y="1142.9928">pausa [go]</text></g><!--link Pruebas to Milestone--><g id="link_Pruebas_Milestone"><path d="M641.65,1220.9258 C636.33,1232.3758 632.69,1240.2253 627.37,1251.6653 " fill="none" id="Pruebas-to-Milestone" style="stroke:#181818;stroke-width:1.0;"/><polygon fill="#181818" points="624.84,1257.1058,632.262,1250.6318,626.9484,1252.5721,625.008,1247.2584,624.84,1257.1058" style="stroke:#181818;stroke-width:1.0;"/></g><!--link Milestone to Correccion--><g id="link_Milestone_Correccion"><path d="M548.8,1291.0658 C515.97,1296.4558 477.06,1307.6858 449.25,1330.9158 C432.53,1344.8958 423.8252,1361.2203 417.2952,1379.9503 " fill="none" id="Milestone-to-Correccion" style="stroke:#181818;stroke-width:1.0;"/><polygon fill="#181818" points="415.32,1385.6158,422.0599,1378.4343,416.966,1380.8945,414.5058,1375.8007,415.32,1385.6158" style="stroke:#181818;stroke-width:1.0;"/><text fill="#000000" font-family="sans-serif" font-size="13" lengthAdjust="spacing" textLength="51" x="474.75" y="1345.8128">rechazar</text><text fill="#000000" font-family="sans-serif" font-size="13" lengthAdjust="spacing" textLength="100" x="450.25" y="1363.5189">[correcci&#243;n local]</text></g><!--link Milestone to Consolidado--><g id="link_Milestone_Consolidado"><path d="M612.25,1313.1258 C612.25,1333.9158 612.25,1356.8558 612.25,1379.5058 " fill="none" id="Milestone-to-Consolidado" style="stroke:#181818;stroke-width:1.0;"/><polygon fill="#181818" points="612.25,1385.5058,616.25,1376.5058,612.25,1380.5058,608.25,1376.5058,612.25,1385.5058" style="stroke:#181818;stroke-width:1.0;"/><text fill="#000000" font-family="sans-serif" font-size="13" lengthAdjust="spacing" textLength="48" x="613.25" y="1354.8128">aprobar</text></g><!--link Correccion to Milestone--><g id="link_Correccion_Milestone"><path d="M510.21,1387.4558 C528.03,1380.6558 543.35,1373.7958 551.25,1367.9158 C570.71,1353.4458 583.6886,1336.19 594.4586,1318.51 " fill="none" id="Correccion-to-Milestone" style="stroke:#181818;stroke-width:1.0;"/><polygon fill="#181818" points="597.58,1313.3858,589.4818,1318.9911,594.9788,1317.6559,596.3139,1323.153,597.58,1313.3858" style="stroke:#181818;stroke-width:1.0;"/></g><!--link Consolidado to *end*Ramillete--><g id="link_Consolidado_*end*Ramillete"><path d="M612.25,1457.9458 C612.25,1471.5358 612.25,1480.0458 612.25,1489.4558 " fill="none" id="Consolidado-to-*end*Ramillete" style="stroke:#181818;stroke-width:1.0;"/><polygon fill="#181818" points="612.25,1495.4558,616.25,1486.4558,612.25,1490.4558,608.25,1486.4558,612.25,1495.4558" style="stroke:#181818;stroke-width:1.0;"/></g><!--link Milestone to Reset--><g id="link_Milestone_Reset"><path d="M647.74,1313.3158 C654.17,1318.8558 660.62,1324.8558 666.25,1330.9158 C686.63,1352.8858 689.13,1360.6558 705.25,1385.9158 C725.01,1416.8858 717.26,1435.1258 746.25,1457.6758 C796.93,1497.1058 872.0753,1503.904 901.8353,1505.154 " fill="none" id="Milestone-to-Reset" style="stroke:#181818;stroke-width:1.0;stroke-dasharray:7.0,7.0;"/><polygon fill="#181818" points="907.83,1505.4058,899.0058,1501.0317,902.8344,1505.196,898.6701,1509.0246,907.83,1505.4058" style="stroke:#181818;stroke-width:1.0;"/><text fill="#000000" font-family="sans-serif" font-size="13" lengthAdjust="spacing" textLength="30" x="791.75" y="1418.1928">reset</text><text fill="#000000" font-family="sans-serif" font-size="13" lengthAdjust="spacing" textLength="119" x="747.25" y="1435.8989">[fricci&#243;n estructural]</text></g><!--link Reset to Requisitos--><g id="link_Reset_Requisitos"><path d="M927.1,1501.8858 C946.51,1491.8858 995.25,1462.8158 995.25,1422.7958 C995.25,824.5658 995.25,824.5658 995.25,824.5658 C995.25,790.2558 972.7032,765.6838 946.5932,746.7038 " fill="none" id="Reset-to-Requisitos" style="stroke:#181818;stroke-width:1.0;stroke-dasharray:1.0,3.0;"/><polygon fill="#181818" points="941.74,743.1758,946.6679,751.7032,945.7844,746.1158,951.3718,745.2322,941.74,743.1758" style="stroke:#181818;stroke-width:1.0;"/></g><!--link Reset to Analisis--><g id="link_Reset_Analisis"><path d="M924.53,1499.2658 C934.98,1485.9258 957.25,1453.8258 957.25,1422.7958 C957.25,970.9758 957.25,970.9758 957.25,970.9758 C957.25,926.2258 972.37,905.2558 943.25,871.2758 C921.24,845.5858 890.9803,835.2676 859.8903,830.4876 " fill="none" id="Reset-to-Analisis" style="stroke:#181818;stroke-width:1.0;stroke-dasharray:1.0,3.0;"/><polygon fill="#181818" points="853.96,829.5758,862.2476,834.897,858.9019,830.3356,863.4633,826.9899,853.96,829.5758" style="stroke:#181818;stroke-width:1.0;"/></g><!--link Reset to Diseno--><g id="link_Reset_Diseno"><path d="M919.25,1494.1458 C919.25,1478.1358 919.25,1448.2658 919.25,1422.7958 C919.25,1081.3858 919.25,1081.3858 919.25,1081.3858 C919.25,991.9158 794.2373,974.847 716.4473,972.497 " fill="none" id="Reset-to-Diseno" style="stroke:#181818;stroke-width:1.0;stroke-dasharray:1.0,3.0;"/><polygon fill="#181818" points="710.45,972.3158,719.3251,976.5858,715.4477,972.4668,719.5667,968.5894,710.45,972.3158" style="stroke:#181818;stroke-width:1.0;"/></g><!--link Reset to Implementacion--><g id="link_Reset_Implementacion"><path d="M913.97,1499.2658 C903.52,1485.9258 881.25,1453.8258 881.25,1422.7958 C881.25,1191.8058 881.25,1191.8058 881.25,1191.8058 C881.25,1125.7458 807.9386,1100.8184 743.0986,1090.7284 " fill="none" id="Reset-to-Implementacion" style="stroke:#181818;stroke-width:1.0;stroke-dasharray:1.0,3.0;"/><polygon fill="#181818" points="737.17,1089.8058,745.4479,1095.1421,742.1105,1090.5746,746.678,1087.2373,737.17,1089.8058" style="stroke:#181818;stroke-width:1.0;"/></g><ellipse cx="724" cy="1619.6779" fill="none" rx="11" ry="11" style="stroke:#222222;stroke-width:1.0;"/><ellipse cx="724" cy="1619.6779" fill="#222222" rx="6" ry="6" style="stroke:#222222;stroke-width:1.0;"/><g id="elem_GMN49"><path d="M6,1001.9079 L6,1118.144 A0,0 0 0 0 6,1118.144 L256,1118.144 A0,0 0 0 0 256,1118.144 L256,1064.0279 L290.63,1060.0279 L256,1056.0279 L256,1011.9079 L246,1001.9079 L6,1001.9079 A0,0 0 0 0 6,1001.9079 " fill="#FEFFDD" style="stroke:#181818;stroke-width:0.5;"/><path d="M246,1001.9079 L246,1011.9079 L256,1011.9079 L246,1001.9079 " fill="#FEFFDD" style="stroke:#181818;stroke-width:0.5;"/><text fill="#000000" font-family="sans-serif" font-size="13" font-weight="bold" lengthAdjust="spacing" textLength="92" x="12" y="1020.8049">Modo humano</text><text fill="#000000" font-family="sans-serif" font-size="13" lengthAdjust="spacing" textLength="120" x="104" y="1020.8049">: un &#250;nico milestone</text><text fill="#000000" font-family="sans-serif" font-size="13" lengthAdjust="spacing" textLength="119" x="12" y="1038.5109">al cierre de Pruebas.</text><text fill="#000000" font-family="sans-serif" font-size="13" font-weight="bold" lengthAdjust="spacing" textLength="91" x="12" y="1056.217">Modo CORRAL</text><text fill="#000000" font-family="sans-serif" font-size="13" lengthAdjust="spacing" textLength="138" x="103" y="1056.217">: un milestone por fase,</text><text fill="#000000" font-family="sans-serif" font-size="13" lengthAdjust="spacing" textLength="156" x="12" y="1073.923">antes de abrir la siguiente.</text><text fill="#000000" font-family="sans-serif" font-size="13" lengthAdjust="spacing" textLength="184" x="12" y="1091.629">Ver secci&#243;n "Gesti&#243;n humana y</text><text fill="#000000" font-family="sans-serif" font-size="13" lengthAdjust="spacing" textLength="139" x="12" y="1109.335">orquestaci&#243;n CORRAL".</text></g><!--link *start* to Base--><g id="link_*start*_Base"><path d="M724,66.3679 C724,78.1979 724,94.3179 724,120.8579 " fill="none" id="*start*-to-Base" style="stroke:#181818;stroke-width:1.0;"/><polygon fill="#181818" points="724,126.8579,728,117.8579,724,121.8579,720,117.8579,724,126.8579" style="stroke:#181818;stroke-width:1.0;"/></g><!--link Base to Ramillete--><g id="link_Base_Ramillete"><path d="M724,529.6179 C724,549.0279 724,563.2179 724,583.9079 " fill="none" id="Base-to-Ramillete" style="stroke:#181818;stroke-width:1.0;"/><polygon fill="#181818" points="724,589.9079,728,580.9079,724,584.9079,720,580.9079,724,589.9079" style="stroke:#181818;stroke-width:1.0;"/></g><!--link Ramillete to Ramillete--><g id="link_Ramillete_Ramillete"><path d="M1157.53,999.3079 C1179.37,1014.3879 1192.25,1034.6279 1192.25,1060.0279 C1192.25,1085.4279 1184.3074,1102.2588 1162.4674,1117.3388 " fill="none" id="Ramillete-to-Ramillete" style="stroke:#181818;stroke-width:1.0;"/><polygon fill="#181818" points="1157.53,1120.7479,1167.2088,1118.9258,1161.6445,1117.907,1162.6633,1112.3426,1157.53,1120.7479" style="stroke:#181818;stroke-width:1.0;"/><text fill="#000000" font-family="sans-serif" font-size="13" lengthAdjust="spacing" textLength="115" x="1198.25" y="1065.4249">[quedan ramilletes]</text></g><!--link Ramillete to *end*--><g id="link_Ramillete_*end*"><path d="M724,1530.0079 C724,1566.1179 724,1588.1079 724,1602.3279 " fill="none" id="Ramillete-to-*end*" style="stroke:#181818;stroke-width:1.0;"/><polygon fill="#181818" points="724,1608.3279,728,1599.3279,724,1603.3279,720,1599.3279,724,1608.3279" style="stroke:#181818;stroke-width:1.0;"/><text fill="#000000" font-family="sans-serif" font-size="13" lengthAdjust="spacing" textLength="196" x="725" y="1574.5749">[todos los ramilletes procesados]</text></g><!--SRC=[TLLBZXit4DttAGgpYMr4CcR6JW9Z8C1n02D0Z0m4s1kD5XIx9173PhL9zc0oHe0SmXVm4Gml37WPtIGdIHNxHtsy4DGillhmiUenccWHhZr5qcG9IWGJqIjjTbySL6R-zXh- - -SZQAFRtJjJAlwtu5LbhCM8HR5uieJ9P0Q_gi2h45L4E9C5mAF6ARZ3XyTde482m8S2eFVuZIhZ3B6b-u8NKAj0S9woLiIPAAKhZv3Y_ugnuMsWWktzTnSYmCNqV78nlKoHb8xaCS2_Nq6dJJvAmrXUbqPj-30gsJIvYFUHydYIwDeRykQ1UI4doV9rN_F5z5dADJ0JeEvW9MUioOCt63O4ohzlc6OTcMIZwJ2U96I6Yh-B8Z4cw_b8TqVmO66M9JRv4fsSeKrQgh8bVSHzA3BgvyWr11CfY7LS3VHTJjhZb1WL-mjLjVH9D7NY3KFqZOvDropxGIQBKeKjbikzJ2bs4nGi74qsj3pmOUnBfomlCwJ06BUtmMG_Rw_LxJubSux8Sn_76pAFU6b44z3HKLP7J9l5TGI-5clSBTi0gjsdUrCfy4ogQoTbsrJAjODHcnePYWbQekOSWk2BuOlJjy3txiZklcpQcqTNfZIIBgk2Z_XJIp_RTfzftCsFTrZsSBWUovZVgzfYXIwEpPeVySGsv_uvvJRPNdl51-Yybk_b6Mewz4rZrU1A7TzsRkTgVadLrAqnsvOGRupbJYIN26n7Op2nlpReFHue5cIG92F46DsLpLzRzQ3yZLlepYxtPqahkppXwW9PcJQv1iKJib9-B6KlSgQiIMg6u3UEHpVw9B1MmLg6NawyPNHgAkLIrLcqxnnzlnokfg8xz2mu4TUYWU66yoWNs1WKUnyHamVeTMY8FiU04Qwkz9QCnjcisATZQ8Oqz08LDlcVgLnxqn4vwePTjj8ZI7Qc60VdGPjExlUZUtgtxVqJUuSzof0VZZ5TSudwZjAv9y5yhCNx1albCgrV7g15PnaNIRJVyc_lMI2DGLu5PY3Jc7Kcym1NgzaRzcwrXQwUhcOle76m-oPl1h_D_UK3A3lsUL__D8lmwi_v_EKVGuJ1DRr9qcq_IX0NKp-0MddZfG-3sJI6oKA9zOxRAFJ3SFQQ0-J2znSZY5yr39rMT3dFfiKWSFy3]--></g></svg>