<?xml version="1.0" encoding="us-ascii" standalone="no"?><svg xmlns="http://www.w3.org/2000/svg" xmlns:xlink="http://www.w3.org/1999/xlink" contentStyleType="text/css" height="1636px" preserveAspectRatio="none" style="width:1207px;height:1636px;background:#FFFFFF;" version="1.1" viewBox="0 0 1207 1636" width="1207px" zoomAndPan="magnify"><defs/><g><text fill="#000000" font-family="sans-serif" font-size="14" font-weight="bold" lengthAdjust="spacing" textLength="403" x="395.375" y="24.9659">Protocolo de iteraci&#243;n miRUP &#8212; ciclo de vida del ramillete</text><ellipse cx="665" cy="56.0679" fill="#222222" rx="10" ry="10" style="stroke:#222222;stroke-width:1.0;"/><path d="M481,127.0679 L849,127.0679 A12.5,12.5 0 0 1 861.5,139.5679 L861.5,156.1358 L468.5,156.1358 L468.5,139.5679 A12.5,12.5 0 0 1 481,127.0679 " fill="#F1F1F1" style="stroke:#F1F1F1;stroke-width:1.0;"/><rect fill="none" height="402.3079" rx="12.5" ry="12.5" style="stroke:#181818;stroke-width:0.5;" width="393" x="468.5" y="127.0679"/><line style="stroke:#181818;stroke-width:0.5;" x1="468.5" x2="861.5" y1="156.1358" y2="156.1358"/><text fill="#000000" font-family="sans-serif" font-size="14" lengthAdjust="spacing" textLength="100" x="615" y="147.0339">Base  (una vez)</text><ellipse cx="666.5" cy="177.1358" fill="#222222" rx="10" ry="10" style="stroke:#222222;stroke-width:1.0;"/><g id="Base.Dominio"><rect fill="#F1F1F1" height="55.412" rx="12.5" ry="12.5" style="stroke:#181818;stroke-width:0.5;" width="185" x="574" y="223.1358"/><line style="stroke:#181818;stroke-width:0.5;" x1="574" x2="759" y1="252.2038" y2="252.2038"/><text fill="#000000" font-family="sans-serif" font-size="14" lengthAdjust="spacing" textLength="56" x="638.5" y="243.1018">Dominio</text><text fill="#000000" font-family="sans-serif" font-size="12" lengthAdjust="spacing" textLength="165" x="579" y="270.0318">paso 1 &#8212; modelo del dominio</text></g><g id="Base.CasosUso"><rect fill="#F1F1F1" height="55.412" rx="12.5" ry="12.5" style="stroke:#181818;stroke-width:0.5;" width="372" x="480.5" y="314.5558"/><line style="stroke:#181818;stroke-width:0.5;" x1="480.5" x2="852.5" y1="343.6238" y2="343.6238"/><text fill="#000000" font-family="sans-serif" font-size="14" lengthAdjust="spacing" textLength="64" x="634.5" y="334.5218">CasosUso</text><text fill="#000000" font-family="sans-serif" font-size="12" lengthAdjust="spacing" textLength="352" x="485.5" y="361.4518">pasos 2.1-2.3 &#8212; actores &#183; casos de uso &#183; diagramas de contexto</text></g><g id="Base.Priorizacion"><rect fill="#F1F1F1" height="55.412" rx="12.5" ry="12.5" style="stroke:#181818;stroke-width:0.5;" width="350" x="491.5" y="405.9658"/><line style="stroke:#181818;stroke-width:0.5;" x1="491.5" x2="841.5" y1="435.0338" y2="435.0338"/><text fill="#000000" font-family="sans-serif" font-size="14" lengthAdjust="spacing" textLength="79" x="627" y="425.9318">Priorizacion</text><text fill="#000000" font-family="sans-serif" font-size="12" lengthAdjust="spacing" textLength="330" x="496.5" y="452.8618">paso 2.4 &#8212; ramilletes priorizados por riesgo arquitect&#243;nico</text></g><ellipse cx="666.5" cy="508.3758" fill="none" rx="11" ry="11" style="stroke:#222222;stroke-width:1.0;"/><ellipse cx="666.5" cy="508.3758" fill="#222222" rx="6" ry="6" style="stroke:#222222;stroke-width:1.0;"/><!--link *start*Base to Dominio--><g id="link_*start*Base_Dominio"><path d="M666.5,187.5158 C666.5,196.4758 666.5,204.4158 666.5,216.8458 " fill="none" id="*start*Base-to-Dominio" style="stroke:#181818;stroke-width:1.0;"/><polygon fill="#181818" points="666.5,222.8458,670.5,213.8458,666.5,217.8458,662.5,213.8458,666.5,222.8458" style="stroke:#181818;stroke-width:1.0;"/></g><!--link Dominio to CasosUso--><g id="link_Dominio_CasosUso"><path d="M666.5,278.6758 C666.5,289.8858 666.5,296.8958 666.5,308.1458 " fill="none" id="Dominio-to-CasosUso" style="stroke:#181818;stroke-width:1.0;"/><polygon fill="#181818" points="666.5,314.1458,670.5,305.1458,666.5,309.1458,662.5,305.1458,666.5,314.1458" style="stroke:#181818;stroke-width:1.0;"/></g><!--link CasosUso to Priorizacion--><g id="link_CasosUso_Priorizacion"><path d="M666.5,370.0858 C666.5,381.2958 666.5,388.3058 666.5,399.5558 " fill="none" id="CasosUso-to-Priorizacion" style="stroke:#181818;stroke-width:1.0;"/><polygon fill="#181818" points="666.5,405.5558,670.5,396.5558,666.5,400.5558,662.5,396.5558,666.5,405.5558" style="stroke:#181818;stroke-width:1.0;"/></g><!--link Priorizacion to *end*Base--><g id="link_Priorizacion_*end*Base"><path d="M666.5,461.7458 C666.5,474.0158 666.5,481.8058 666.5,490.9758 " fill="none" id="Priorizacion-to-*end*Base" style="stroke:#181818;stroke-width:1.0;"/><polygon fill="#181818" points="666.5,496.9758,670.5,487.9758,666.5,491.9758,662.5,487.9758,666.5,496.9758" style="stroke:#181818;stroke-width:1.0;"/></g><path d="M303.75,590.3779 L1026.25,590.3779 A12.5,12.5 0 0 1 1038.75,602.8779 L1038.75,619.4458 L291.25,619.4458 L291.25,602.8779 A12.5,12.5 0 0 1 303.75,590.3779 " fill="#F1F1F1" style="stroke:#F1F1F1;stroke-width:1.0;"/><rect fill="none" height="939.2979" rx="12.5" ry="12.5" style="stroke:#181818;stroke-width:0.5;" width="747.5" x="291.25" y="590.3779"/><line style="stroke:#181818;stroke-width:0.5;" x1="291.25" x2="1038.75" y1="619.4458" y2="619.4458"/><text fill="#000000" font-family="sans-serif" font-size="14" lengthAdjust="spacing" textLength="234" x="548" y="610.3439">Ramillete  (por orden de prioridad)</text><ellipse cx="776.75" cy="640.4458" fill="#222222" rx="10" ry="10" style="stroke:#222222;stroke-width:1.0;"/><g id="Ramillete.Requisitos"><rect fill="#F1F1F1" height="55.412" rx="12.5" ry="12.5" style="stroke:#181818;stroke-width:0.5;" width="280" x="636.75" y="687.4458"/><line style="stroke:#181818;stroke-width:0.5;" x1="636.75" x2="916.75" y1="716.5138" y2="716.5138"/><text fill="#000000" font-family="sans-serif" font-size="14" lengthAdjust="spacing" textLength="70" x="741.75" y="707.4118">Requisitos</text><text fill="#000000" font-family="sans-serif" font-size="12" lengthAdjust="spacing" textLength="260" x="641.75" y="734.3418">pasos 3-4 &#8212; detalle &#183; prototipo &#183; estructuraci&#243;n</text></g><g id="Ramillete.Analisis"><rect fill="#F1F1F1" height="55.412" rx="12.5" ry="12.5" style="stroke:#181818;stroke-width:0.5;" width="117" x="618.25" y="797.8558"/><line style="stroke:#181818;stroke-width:0.5;" x1="618.25" x2="735.25" y1="826.9238" y2="826.9238"/><text fill="#000000" font-family="sans-serif" font-size="14" lengthAdjust="spacing" textLength="52" x="650.75" y="817.8218">Analisis</text><text fill="#000000" font-family="sans-serif" font-size="12" lengthAdjust="spacing" textLength="97" x="623.25" y="844.7518">paso 5 &#8212; an&#225;lisis</text></g><g id="Ramillete.Diseno"><rect fill="#F1F1F1" height="55.412" rx="12.5" ry="12.5" style="stroke:#181818;stroke-width:0.5;" width="112" x="520.75" y="944.2758"/><line style="stroke:#181818;stroke-width:0.5;" x1="520.75" x2="632.75" y1="973.3438" y2="973.3438"/><text fill="#000000" font-family="sans-serif" font-size="14" lengthAdjust="spacing" textLength="46" x="553.75" y="964.2418">Diseno</text><text fill="#000000" font-family="sans-serif" font-size="12" lengthAdjust="spacing" textLength="92" x="525.75" y="991.1718">paso 6 &#8212; dise&#241;o</text></g><g id="Ramillete.Implementacion"><rect fill="#F1F1F1" height="55.412" rx="12.5" ry="12.5" style="stroke:#181818;stroke-width:0.5;" width="165" x="494.25" y="1054.6858"/><line style="stroke:#181818;stroke-width:0.5;" x1="494.25" x2="659.25" y1="1083.7538" y2="1083.7538"/><text fill="#000000" font-family="sans-serif" font-size="14" lengthAdjust="spacing" textLength="110" x="521.75" y="1074.6518">Implementacion</text><text fill="#000000" font-family="sans-serif" font-size="12" lengthAdjust="spacing" textLength="145" x="499.25" y="1101.5818">paso 7 &#8212; implementaci&#243;n</text></g><g id="Ramillete.Pruebas"><rect fill="#F1F1F1" height="55.412" rx="12.5" ry="12.5" style="stroke:#181818;stroke-width:0.5;" width="121" x="516.25" y="1165.0958"/><line style="stroke:#181818;stroke-width:0.5;" x1="516.25" x2="637.25" y1="1194.1638" y2="1194.1638"/><text fill="#000000" font-family="sans-serif" font-size="14" lengthAdjust="spacing" textLength="55" x="549.25" y="1185.0618">Pruebas</text><text fill="#000000" font-family="sans-serif" font-size="12" lengthAdjust="spacing" textLength="101" x="521.25" y="1211.9918">paso 8 &#8212; pruebas</text></g><g id="Ramillete.Milestone"><rect fill="#F1F1F1" height="55.412" rx="12.5" ry="12.5" style="stroke:#181818;stroke-width:0.5;" width="126" x="513.75" y="1257.5058"/><line style="stroke:#181818;stroke-width:0.5;" x1="513.75" x2="639.75" y1="1286.5738" y2="1286.5738"/><text fill="#000000" font-family="sans-serif" font-size="14" lengthAdjust="spacing" textLength="66" x="543.75" y="1277.4718">Milestone</text><text fill="#000000" font-family="sans-serif" font-size="12" lengthAdjust="spacing" textLength="106" x="518.75" y="1304.4018">cierre del ramillete</text></g><g id="Ramillete.Correccion"><rect fill="#F1F1F1" height="71.7561" rx="12.5" ry="12.5" style="stroke:#181818;stroke-width:0.5;" width="207" x="303.25" y="1385.9158"/><line style="stroke:#181818;stroke-width:0.5;" x1="303.25" x2="510.25" y1="1414.9838" y2="1414.9838"/><text fill="#000000" font-family="sans-serif" font-size="14" lengthAdjust="spacing" textLength="72" x="370.75" y="1405.8818">Correccion</text><text fill="#000000" font-family="sans-serif" font-size="12" lengthAdjust="spacing" textLength="128" x="308.25" y="1432.8118">iteraci&#243;n de correcci&#243;n</text><text fill="#000000" font-family="sans-serif" font-size="12" lengthAdjust="spacing" textLength="187" x="308.25" y="1449.156">dentro de la fase &#8212; hacia delante</text></g><g id="Ramillete.Consolidado"><rect fill="#F1F1F1" height="71.7561" rx="12.5" ry="12.5" style="stroke:#181818;stroke-width:0.5;" width="169" x="528.25" y="1385.9158"/><line style="stroke:#181818;stroke-width:0.5;" x1="528.25" x2="697.25" y1="1414.9838" y2="1414.9838"/><text fill="#000000" font-family="sans-serif" font-size="14" lengthAdjust="spacing" textLength="83" x="571.25" y="1405.8818">Consolidado</text><text fill="#000000" font-family="sans-serif" font-size="12" lengthAdjust="spacing" textLength="115" x="533.25" y="1432.8118">promover artefactos</text><text fill="#000000" font-family="sans-serif" font-size="12" lengthAdjust="spacing" textLength="149" x="533.25" y="1449.156">transversales del ramillete</text></g><ellipse cx="612.75" cy="1506.6758" fill="none" rx="11" ry="11" style="stroke:#222222;stroke-width:1.0;"/><ellipse cx="612.75" cy="1506.6758" fill="#222222" rx="6" ry="6" style="stroke:#222222;stroke-width:1.0;"/><g id="elem_Reset"><polygon fill="#F1F1F1" points="800.75,1494.6758,812.75,1506.6758,800.75,1518.6758,788.75,1506.6758,800.75,1494.6758" style="stroke:#181818;stroke-width:0.5;"/></g><!--link *start*Ramillete to Requisitos--><g id="link_*start*Ramillete_Requisitos"><path d="M776.75,650.6558 C776.75,659.8258 776.75,668.3558 776.75,681.1958 " fill="none" id="*start*Ramillete-to-Requisitos" style="stroke:#181818;stroke-width:1.0;"/><polygon fill="#181818" points="776.75,687.1958,780.75,678.1958,776.75,682.1958,772.75,678.1958,776.75,687.1958" style="stroke:#181818;stroke-width:1.0;"/></g><!--link Requisitos to Requisitos--><g id="link_Requisitos_Requisitos"><path d="M917.22,708.6258 C928.06,710.0658 934.75,712.2458 934.75,715.1558 C934.75,718.0658 934.0078,719.4557 923.1678,720.8957 " fill="none" id="Requisitos-to-Requisitos" style="stroke:#181818;stroke-width:1.0;stroke-dasharray:7.0,7.0;"/><polygon fill="#181818" points="917.22,721.6858,926.6684,724.4658,922.1765,721.0274,925.6149,716.5355,917.22,721.6858" style="stroke:#181818;stroke-width:1.0;"/><text fill="#000000" font-family="sans-serif" font-size="13" lengthAdjust="spacing" textLength="83" x="940.75" y="720.5528">pausa [no-go]</text></g><!--link Requisitos to Analisis--><g id="link_Requisitos_Analisis"><path d="M751.77,743.2258 C736.5,759.7858 721.0988,776.4862 705.8188,793.0462 " fill="none" id="Requisitos-to-Analisis" style="stroke:#181818;stroke-width:1.0;"/><polygon fill="#181818" points="701.75,797.4558,710.793,793.5539,705.1407,793.7811,704.9134,788.1288,701.75,797.4558" style="stroke:#181818;stroke-width:1.0;"/><text fill="#000000" font-family="sans-serif" font-size="13" lengthAdjust="spacing" textLength="63" x="733.74" y="775.7528">pausa [go]</text></g><!--link Analisis to Analisis--><g id="link_Analisis_Analisis"><path d="M735.45,815.8258 C745.93,817.0858 753.25,820.3358 753.25,825.5658 C753.25,830.7958 751.8871,833.3296 741.4071,834.5896 " fill="none" id="Analisis-to-Analisis" style="stroke:#181818;stroke-width:1.0;stroke-dasharray:7.0,7.0;"/><polygon fill="#181818" points="735.45,835.3058,744.8631,838.2029,740.4142,834.709,743.9082,830.2601,735.45,835.3058" style="stroke:#181818;stroke-width:1.0;"/><text fill="#000000" font-family="sans-serif" font-size="13" lengthAdjust="spacing" textLength="83" x="759.25" y="830.9628">pausa [no-go]</text></g><!--link Analisis to Diseno--><g id="link_Analisis_Diseno"><path d="M617.84,833.3558 C571.26,840.0858 511.68,852.1858 496.75,871.2758 C481.69,890.5258 484.38,905.1858 496.75,926.2758 C502.39,935.8758 505.8846,940.3132 515.3146,946.4232 " fill="none" id="Analisis-to-Diseno" style="stroke:#181818;stroke-width:1.0;"/><polygon fill="#181818" points="520.35,949.6858,514.9719,941.435,516.1538,946.967,510.6218,948.1489,520.35,949.6858" style="stroke:#181818;stroke-width:1.0;"/><path d="M501.75,876.2758 L501.75,921.2758 L754.75,921.2758 L754.75,886.2758 L744.75,876.2758 L501.75,876.2758 " fill="#FEFFDD" style="stroke:#181818;stroke-width:0.5;"/><path d="M744.75,876.2758 L744.75,886.2758 L754.75,886.2758 L744.75,876.2758 " fill="#FEFFDD" style="stroke:#181818;stroke-width:0.5;"/><text fill="#000000" font-family="sans-serif" font-size="13" lengthAdjust="spacing" textLength="232" x="507.75" y="895.1728">m&#225;xima retenci&#243;n humana del pipeline</text><text fill="#000000" font-family="sans-serif" font-size="13" lengthAdjust="spacing" textLength="174" x="507.75" y="912.8789">decisi&#243;n de stack tecnol&#243;gico</text><text fill="#000000" font-family="sans-serif" font-size="13" lengthAdjust="spacing" textLength="63" x="760.75" y="904.0259">pausa [go]</text></g><!--link Diseno to Diseno--><g id="link_Diseno_Diseno"><path d="M633.21,962.1958 C643.52,963.4358 650.75,966.6958 650.75,971.9758 C650.75,977.2658 649.4778,979.8151 639.1678,981.0451 " fill="none" id="Diseno-to-Diseno" style="stroke:#181818;stroke-width:1.0;stroke-dasharray:7.0,7.0;"/><polygon fill="#181818" points="633.21,981.7558,642.6205,984.6615,638.1748,981.1635,641.6728,976.7178,633.21,981.7558" style="stroke:#181818;stroke-width:1.0;"/><text fill="#000000" font-family="sans-serif" font-size="13" lengthAdjust="spacing" textLength="83" x="656.75" y="977.3728">pausa [no-go]</text></g><!--link Diseno to Implementacion--><g id="link_Diseno_Implementacion"><path d="M576.75,1000.0558 C576.75,1016.6158 576.75,1031.7158 576.75,1048.2858 " fill="none" id="Diseno-to-Implementacion" style="stroke:#181818;stroke-width:1.0;"/><polygon fill="#181818" points="576.75,1054.2858,580.75,1045.2858,576.75,1049.2858,572.75,1045.2858,576.75,1054.2858" style="stroke:#181818;stroke-width:1.0;"/><text fill="#000000" font-family="sans-serif" font-size="13" lengthAdjust="spacing" textLength="63" x="577.75" y="1032.5828">pausa [go]</text></g><!--link Implementacion to Implementacion--><g id="link_Implementacion_Implementacion"><path d="M659.55,1073.3158 C670.21,1074.8958 677.25,1077.9158 677.25,1082.3858 C677.25,1086.8658 676.1452,1089.0061 665.4852,1090.5861 " fill="none" id="Implementacion-to-Implementacion" style="stroke:#181818;stroke-width:1.0;stroke-dasharray:7.0,7.0;"/><polygon fill="#181818" points="659.55,1091.4658,669.0392,1094.1031,664.496,1090.7328,667.8663,1086.1895,659.55,1091.4658" style="stroke:#181818;stroke-width:1.0;"/><text fill="#000000" font-family="sans-serif" font-size="13" lengthAdjust="spacing" textLength="83" x="683.25" y="1087.7828">pausa [no-go]</text></g><!--link Implementacion to Pruebas--><g id="link_Implementacion_Pruebas"><path d="M576.75,1110.4658 C576.75,1127.0258 576.75,1142.1358 576.75,1158.6958 " fill="none" id="Implementacion-to-Pruebas" style="stroke:#181818;stroke-width:1.0;"/><polygon fill="#181818" points="576.75,1164.6958,580.75,1155.6958,576.75,1159.6958,572.75,1155.6958,576.75,1164.6958" style="stroke:#181818;stroke-width:1.0;"/><text fill="#000000" font-family="sans-serif" font-size="13" lengthAdjust="spacing" textLength="63" x="577.75" y="1142.9928">pausa [go]</text></g><!--link Pruebas to Milestone--><g id="link_Pruebas_Milestone"><path d="M576.75,1220.9258 C576.75,1232.3758 576.75,1239.6658 576.75,1251.1058 " fill="none" id="Pruebas-to-Milestone" style="stroke:#181818;stroke-width:1.0;"/><polygon fill="#181818" points="576.75,1257.1058,580.75,1248.1058,576.75,1252.1058,572.75,1248.1058,576.75,1257.1058" style="stroke:#181818;stroke-width:1.0;"/></g><!--link Milestone to Correccion--><g id="link_Milestone_Correccion"><path d="M513.25,1296.2958 C489.4,1302.7958 463.54,1313.4658 444.75,1330.9158 C429.24,1345.3358 421.5418,1361.3512 415.9618,1379.8612 " fill="none" id="Milestone-to-Correccion" style="stroke:#181818;stroke-width:1.0;"/><polygon fill="#181818" points="414.23,1385.6058,420.6574,1378.1434,415.6731,1380.8186,412.9979,1375.8343,414.23,1385.6058" style="stroke:#181818;stroke-width:1.0;"/><text fill="#000000" font-family="sans-serif" font-size="13" lengthAdjust="spacing" textLength="51" x="470.25" y="1345.8128">rechazar</text><text fill="#000000" font-family="sans-serif" font-size="13" lengthAdjust="spacing" textLength="100" x="445.75" y="1363.5189">[correcci&#243;n local]</text></g><!--link Milestone to Consolidado--><g id="link_Milestone_Consolidado"><path d="M583.95,1313.1258 C589.51,1333.9158 595.6992,1357.0597 601.7592,1379.7097 " fill="none" id="Milestone-to-Consolidado" style="stroke:#181818;stroke-width:1.0;"/><polygon fill="#181818" points="603.31,1385.5058,604.848,1375.7778,602.0177,1380.6757,597.1198,1377.8455,603.31,1385.5058" style="stroke:#181818;stroke-width:1.0;"/><text fill="#000000" font-family="sans-serif" font-size="13" lengthAdjust="spacing" textLength="48" x="598.97" y="1354.8128">aprobar</text></g><!--link Correccion to Milestone--><g id="link_Correccion_Milestone"><path d="M510.59,1387.9858 C526.79,1381.3558 540.3,1374.4258 546.75,1367.9158 C561.32,1353.2158 567.599,1336.7053 571.479,1319.0953 " fill="none" id="Correccion-to-Milestone" style="stroke:#181818;stroke-width:1.0;"/><polygon fill="#181818" points="572.77,1313.2358,566.9272,1321.1644,571.6942,1318.1187,574.7398,1322.8857,572.77,1313.2358" style="stroke:#181818;stroke-width:1.0;"/></g><!--link Consolidado to *end*Ramillete--><g id="link_Consolidado_*end*Ramillete"><path d="M612.75,1457.9458 C612.75,1471.5358 612.75,1480.0458 612.75,1489.4558 " fill="none" id="Consolidado-to-*end*Ramillete" style="stroke:#181818;stroke-width:1.0;"/><polygon fill="#181818" points="612.75,1495.4558,616.75,1486.4558,612.75,1490.4558,608.75,1486.4558,612.75,1495.4558" style="stroke:#181818;stroke-width:1.0;"/></g><!--link Milestone to Reset--><g id="link_Milestone_Reset"><path d="M626.37,1313.3258 C635.09,1318.7758 643.88,1324.7358 651.75,1330.9158 C678.69,1352.0858 686.14,1357.8258 705.75,1385.9158 C731.3,1422.5258 718.25,1444.0858 748.75,1476.6758 C761.18,1489.9558 775.4736,1496.6016 786.7036,1500.7616 " fill="none" id="Milestone-to-Reset" style="stroke:#181818;stroke-width:1.0;stroke-dasharray:7.0,7.0;"/><polygon fill="#181818" points="792.33,1502.8458,785.2799,1495.9686,787.6414,1501.109,782.501,1503.4704,792.33,1502.8458" style="stroke:#181818;stroke-width:1.0;"/></g><!--link Reset to Requisitos--><g id="link_Reset_Requisitos"><path d="M808.6,1501.8858 C828.01,1491.8858 876.75,1462.8158 876.75,1422.7958 C876.75,824.5658 876.75,824.5658 876.75,824.5658 C876.75,790.2558 854.2032,765.6838 828.0932,746.7038 " fill="none" id="Reset-to-Requisitos" style="stroke:#181818;stroke-width:1.0;stroke-dasharray:1.0,3.0;"/><polygon fill="#181818" points="823.24,743.1758,828.1679,751.7032,827.2844,746.1158,832.8718,745.2322,823.24,743.1758" style="stroke:#181818;stroke-width:1.0;"/></g><!--link Reset to Analisis--><g id="link_Reset_Analisis"><path d="M806.03,1499.2658 C816.48,1485.9258 838.75,1453.8258 838.75,1422.7958 C838.75,970.9758 838.75,970.9758 838.75,970.9758 C838.75,926.2258 853.87,905.2558 824.75,871.2758 C802.74,845.5858 772.4803,835.2676 741.3903,830.4876 " fill="none" id="Reset-to-Analisis" style="stroke:#181818;stroke-width:1.0;stroke-dasharray:1.0,3.0;"/><polygon fill="#181818" points="735.46,829.5758,743.7476,834.897,740.4019,830.3356,744.9633,826.9899,735.46,829.5758" style="stroke:#181818;stroke-width:1.0;"/></g><!--link Reset to Diseno--><g id="link_Reset_Diseno"><path d="M800.75,1494.1458 C800.75,1478.1358 800.75,1448.2658 800.75,1422.7958 C800.75,1081.3858 800.75,1081.3858 800.75,1081.3858 C800.75,1006.9658 705.3038,984.2738 638.9538,976.9538 " fill="none" id="Reset-to-Diseno" style="stroke:#181818;stroke-width:1.0;stroke-dasharray:1.0,3.0;"/><polygon fill="#181818" points="632.99,976.2958,641.4971,981.2586,637.9598,976.8441,642.3744,973.3069,632.99,976.2958" style="stroke:#181818;stroke-width:1.0;"/></g><!--link Reset to Implementacion--><g id="link_Reset_Implementacion"><path d="M795.47,1499.2658 C785.02,1485.9258 762.75,1453.8258 762.75,1422.7958 C762.75,1191.8058 762.75,1191.8058 762.75,1191.8058 C762.75,1140.5058 715.0511,1114.7219 665.4511,1100.2919 " fill="none" id="Reset-to-Implementacion" style="stroke:#181818;stroke-width:1.0;stroke-dasharray:1.0,3.0;"/><polygon fill="#181818" points="659.69,1098.6158,667.2143,1104.9707,664.491,1100.0126,669.4491,1097.2892,659.69,1098.6158" style="stroke:#181818;stroke-width:1.0;"/></g><ellipse cx="665" cy="1619.6779" fill="none" rx="11" ry="11" style="stroke:#222222;stroke-width:1.0;"/><ellipse cx="665" cy="1619.6779" fill="#222222" rx="6" ry="6" style="stroke:#222222;stroke-width:1.0;"/><g id="elem_GMN49"><path d="M6,1001.9079 L6,1118.144 A0,0 0 0 0 6,1118.144 L256,1118.144 A0,0 0 0 0 256,1118.144 L256,1064.0279 L291.13,1060.0279 L256,1056.0279 L256,1011.9079 L246,1001.9079 L6,1001.9079 A0,0 0 0 0 6,1001.9079 " fill="#FEFFDD" style="stroke:#181818;stroke-width:0.5;"/><path d="M246,1001.9079 L246,1011.9079 L256,1011.9079 L246,1001.9079 " fill="#FEFFDD" style="stroke:#181818;stroke-width:0.5;"/><text fill="#000000" font-family="sans-serif" font-size="13" font-weight="bold" lengthAdjust="spacing" textLength="92" x="12" y="1020.8049">Modo humano</text><text fill="#000000" font-family="sans-serif" font-size="13" lengthAdjust="spacing" textLength="120" x="104" y="1020.8049">: un &#250;nico milestone</text><text fill="#000000" font-family="sans-serif" font-size="13" lengthAdjust="spacing" textLength="119" x="12" y="1038.5109">al cierre de Pruebas.</text><text fill="#000000" font-family="sans-serif" font-size="13" font-weight="bold" lengthAdjust="spacing" textLength="91" x="12" y="1056.217">Modo CORRAL</text><text fill="#000000" font-family="sans-serif" font-size="13" lengthAdjust="spacing" textLength="138" x="103" y="1056.217">: un milestone por fase,</text><text fill="#000000" font-family="sans-serif" font-size="13" lengthAdjust="spacing" textLength="156" x="12" y="1073.923">antes de abrir la siguiente.</text><text fill="#000000" font-family="sans-serif" font-size="13" lengthAdjust="spacing" textLength="184" x="12" y="1091.629">Ver secci&#243;n "Gesti&#243;n humana y</text><text fill="#000000" font-family="sans-serif" font-size="13" lengthAdjust="spacing" textLength="139" x="12" y="1109.335">orquestaci&#243;n CORRAL".</text></g><!--link *start* to Base--><g id="link_*start*_Base"><path d="M665,66.3679 C665,78.1979 665,94.3179 665,120.8579 " fill="none" id="*start*-to-Base" style="stroke:#181818;stroke-width:1.0;"/><polygon fill="#181818" points="665,126.8579,669,117.8579,665,121.8579,661,117.8579,665,126.8579" style="stroke:#181818;stroke-width:1.0;"/></g><!--link Base to Ramillete--><g id="link_Base_Ramillete"><path d="M665,529.6179 C665,549.0279 665,563.2179 665,583.9079 " fill="none" id="Base-to-Ramillete" style="stroke:#181818;stroke-width:1.0;"/><polygon fill="#181818" points="665,589.9079,669,580.9079,665,584.9079,661,580.9079,665,589.9079" style="stroke:#181818;stroke-width:1.0;"/></g><!--link Ramillete to Ramillete--><g id="link_Ramillete_Ramillete"><path d="M1039.2,996.1279 C1060.83,1011.4979 1073.75,1032.7979 1073.75,1060.0279 C1073.75,1087.2579 1065.7209,1105.0825 1044.0909,1120.4525 " fill="none" id="Ramillete-to-Ramillete" style="stroke:#181818;stroke-width:1.0;"/><polygon fill="#181818" points="1039.2,1123.9279,1048.8534,1121.9754,1043.2758,1121.0317,1044.2195,1115.4541,1039.2,1123.9279" style="stroke:#181818;stroke-width:1.0;"/><text fill="#000000" font-family="sans-serif" font-size="13" lengthAdjust="spacing" textLength="115" x="1079.75" y="1065.4249">[quedan ramilletes]</text></g><!--link Ramillete to *end*--><g id="link_Ramillete_*end*"><path d="M665,1530.0079 C665,1566.1179 665,1588.1079 665,1602.3279 " fill="none" id="Ramillete-to-*end*" style="stroke:#181818;stroke-width:1.0;"/><polygon fill="#181818" points="665,1608.3279,669,1599.3279,665,1603.3279,661,1599.3279,665,1608.3279" style="stroke:#181818;stroke-width:1.0;"/><text fill="#000000" font-family="sans-serif" font-size="13" lengthAdjust="spacing" textLength="196" x="666" y="1574.5749">[todos los ramilletes procesados]</text></g><!--SRC=[TLLBQXmn4DttAGflyY4pmNP-63FWE102CJ43pcOy2uswF2EiLhKbjN5i0Zb4Bk0Z12y2MMPkafEafFvfFbuOZwfUVVIgzDehhn5EBNcIf0bo1ENH2gcM3mOADJuxXNy_Ve9KilPUgrpmVmrM54fhz9Xba-TJ60n6y5uuFZalFC9EE00yhOo0QxnzjWF2HG3SPG1jn0Sgb574bkON740f7C5kh5eGLw9OBjz0XlXZnhepHndRszzD2WTxmzt1td0_PXBIaqK7Vt-3Z4w-IiLOFkTApFao8jea6Oytdj9yeT2fLMJLBVD29XHBpstFUyDNiLR7Z8EoWULSiIGBLg6R4mXxLJ7DqZF9Ij9wlb2G6Sg-PrbaB9p7FTqDmPs5MGwvoUPemXtgehd8Qz9xt5sMK3z6xi4fJovO-rD7t_wWlawENd1yeAeCU-9L6Nb3vsqbVTKiosgImIGNRe7vTALIp5qv0HD3WpbDrs8OUsI4vcE23336hJYOxDVrMCtoFffJH5fxCrzNkSU7HLGE3MrKDSIqQRpmm6FHoboo3Q1Otj-eGe1bKatzKXPL8KpzC4fL8aCnGdEKN2CWU30yE7a9F7T3UlamhoUF9ezbGhca2xxYcvf-jYr_KUzDhxVUTdUv5ikOJqMfiK3Z-sLDhxZ5pRNVnjegyTKZNaEdlJnMf-jfFJO-gmfdOdFQgPsxUHUxAMjZuWufJfJcJIGJ2QoVHcVYUAdGMbnJB4WWKKQ8CR9fctyjnAsmvsOY6tkOdoOfz7HBg76amsiBOn3yGcR2zgsiP4wKDKfDb_pSyDFrDWgi5d0H7dsuyOBHSQc4YLqdsHwv-cext4r1rsXPS3nU10rqvrn76CT69pXwWvWqGQj3NVOnElHmU2WNf2IEHjag7Tqon4VFq5fPGWpxoFlErqdFLd_xChTxwzNUubjVGOOysSGqknF4jLV65OLbuYPN5UR2958-NKC76MMSfo3jclzML9yakY3wp5qY8HU9YWCSpaOd75rB1ns-d8qEe3Am_1C-2VpfRMSB87I_nct_moJ3yPVn-EXpbw4BZP-Si4mlGXBZuxX1pAooOSsScbUAoSAGwojlYMjtVUSZ9qXrxHiZY3zQw1efQ6hk3BDEl_u3]--></g></svg>